<?xml version="1.0" encoding="utf-8"?>
<!-- Generator: Adobe Illustrator 21.0.0, SVG Export Plug-In . SVG Version: 6.00 Build 0)  -->
<svg version="1.1" id="Layer_1" xmlns="http://www.w3.org/2000/svg" xmlns:xlink="http://www.w3.org/1999/xlink" x="0px" y="0px"
	 viewBox="0 0 118 29.8" style="enable-background:new 0 0 118 29.8;" xml:space="preserve">
<style type="text/css">
	.st0{fill:#FFFFFF;}
</style>
<title>bloch copy</title>
<desc>Created with Sketch.</desc>
<path id="bloch-copy" class="st0" d="M43.7,15.7c0-1.9-0.6-3.5-1.8-4.6s-2.6-1.7-4.3-1.7c-1.7,0-3.1,0.6-4.3,1.7
	c-1.2,1.1-1.8,2.7-1.8,4.6c0,1.9,0.6,3.5,1.8,4.6c1.2,1.1,2.6,1.7,4.3,1.7s3.1-0.6,4.3-1.8S43.7,17.7,43.7,15.7z M38.5,6.1
	c2.7,0,4.9,0.9,6.7,2.7s2.7,4.1,2.7,6.9c0,2.8-0.9,5.2-2.7,7c-1.8,1.8-4,2.7-6.7,2.7c-1.6,0-3-0.3-4.1-1c-1.2-0.7-2.1-1.6-2.8-2.8
	v3.5h-4.1V0h4.1v9.8c0.7-1.1,1.6-2,2.8-2.6C35.5,6.5,36.9,6.1,38.5,6.1z M49.8,25.2V0H54v25.2H49.8z M72.1,15.8c0-2-0.6-3.6-1.8-4.7
	c-1.2-1.1-2.6-1.7-4.3-1.7c-1.7,0-3.1,0.6-4.2,1.7c-1.1,1.1-1.7,2.7-1.7,4.7s0.6,3.6,1.7,4.7c1.1,1.1,2.5,1.7,4.2,1.7
	s3.1-0.6,4.3-1.7S72.1,17.8,72.1,15.8z M58.8,22.8c-1.9-1.8-2.8-4.1-2.8-7c0-2.9,1-5.2,2.9-7s4.4-2.7,7.3-2.7s5.3,0.9,7.3,2.7
	c2,1.8,2.9,4.1,2.9,7c0,2.9-1,5.2-3,7c-2,1.8-4.5,2.7-7.4,2.7S60.7,24.6,58.8,22.8z M81.3,22.8c-1.8-1.8-2.7-4.1-2.7-7
	c0-2.9,0.9-5.3,2.7-7s4.2-2.7,7.1-2.7c2.4,0,4.4,0.5,6,1.6c1.6,1.1,2.7,2.6,3.2,4.6h-4.5c-0.8-2-2.3-3-4.8-3c-1.7,0-3,0.6-4.1,1.7
	c-1,1.1-1.5,2.7-1.5,4.7c0,2,0.5,3.6,1.5,4.7s2.4,1.7,4.1,1.7c2.4,0,4-1,4.8-3h4.5c-0.6,1.9-1.7,3.4-3.3,4.5c-1.6,1.1-3.6,1.7-6,1.7
	C85.5,25.5,83.1,24.6,81.3,22.8z M103.7,0v9.4c1.3-2.2,3.5-3.3,6.4-3.3c2.3,0,4.1,0.7,5.6,2.1s2.2,3.4,2.2,5.9v11.1h-4.1V14.7
	c0-1.7-0.4-3-1.3-3.9c-0.9-0.9-2.1-1.3-3.7-1.3s-2.8,0.4-3.7,1.3c-0.9,0.9-1.4,2.2-1.4,3.9v10.5h-4.1V0H103.7z"/>
<g id="Page-1">
	<path id="Fill-1" class="st0" d="M8.5,17.1c0,0.1,0.1,0.2,0.2,0.2c0.1,0,0.1,0,0.2,0c0.8-0.1,1.6-0.2,2.3-0.5
		c1.5-0.5,2.5-1.8,3-3.2c0.1-0.4,0.2-0.9,0.3-1.3c0.2-1.7,0.1-3.3,0.1-5c0-0.2-0.1-0.4-0.1-0.6c-0.1-0.3-0.3-0.4-0.6-0.4
		c-0.1,0-0.3,0-0.4,0c-1.3,0-2.6,0-3.9,0c-0.2,0-0.3,0-0.5,0c-0.3,0-0.5,0.2-0.5,0.5c0,0.1,0,0.2,0,0.2v4.6c0,0.1,0,0.2,0,0.2
		c0,0.3,0.2,0.5,0.5,0.5c0.2,0,0.3,0,0.5,0c0.3,0,0.6,0,1,0c0.4,0,0.6,0.2,0.6,0.7c-0.1,0.3-0.2,0.6-0.3,0.9
		c-0.3,0.7-0.8,1.2-1.6,1.4c-0.1,0-0.2,0-0.3,0.1c-0.2,0.1-0.3,0.2-0.3,0.4C8.4,16.3,8.4,16.7,8.5,17.1 M5.3,26
		c-0.2,0.1-0.4-0.1-0.4-0.3c0-0.6,0-1.1,0-1.6c0-0.4,0-0.7,0-1.1c0-0.6-0.1-0.7-0.7-0.7c-0.9,0-1.7,0-2.6,0c-0.2,0-0.5,0-0.7,0
		c-0.2,0-0.4-0.2-0.4-0.4c0-0.2,0-0.4,0-0.6c0-6.1,0-12.1,0-18.2c0-0.1,0-0.1,0-0.2c0-0.7,0.1-0.8,0.9-0.8c0.2,0,0.3,0,0.5,0h19.4
		c0.3,0,0.6,0,0.8,0c0.4,0,0.5,0.2,0.5,0.5c0,0.2,0,0.4,0,0.6c0,6,0,11.9,0,17.9c0,0.1,0,0.3,0,0.4c0,0.5-0.4,0.9-0.9,0.9
		c-0.2,0-0.3,0-0.5,0c-2.6,0-5.1,0-7.7,0c-0.8,0-1.5,0.2-2.2,0.6c-1.8,1-3.7,1.9-5.5,2.9C5.7,25.8,5.5,25.9,5.3,26"/>
	<path id="Fill-3" class="st0" d="M3.8,29.8v-1.7C3.8,28,3.9,28,4,28h0.2c0.1,0,0.1,0.1,0.1,0.1V29c0,0.1,0.1,0.1,0.2,0.1l6.7-4.1
		c0.4-0.2,0.8-0.4,1.3-0.4l11.8-0.2c0.3,0,0.5-0.2,0.5-0.4l0-23.1c0-0.1-0.1-0.2-0.3-0.2l-22.2,0c-0.1,0-0.1-0.1-0.1-0.1V0.3
		c0-0.1,0.1-0.1,0.1-0.1l22.2,0c0.4,0,0.7,0.3,0.7,0.7l0,23.1c0,0.5-0.4,0.9-1,0.9L12.5,25c-0.4,0-0.7,0.1-1,0.3L4,29.9
		C3.9,29.9,3.8,29.9,3.8,29.8"/>
</g>
</svg>
