<?xml version="1.0" encoding="UTF-8"?>
<svg width="155px" height="199px" viewBox="0 0 155 199" version="1.1" xmlns="http://www.w3.org/2000/svg" xmlns:xlink="http://www.w3.org/1999/xlink">
    <!-- Generator: Sketch 42 (36781) - http://www.bohemiancoding.com/sketch -->
    <title>bloch-LogoIcon</title>
    <desc>Created with Sketch.</desc>
    <defs></defs>
    <g id="final" stroke="none" stroke-width="1" fill="none" fill-rule="evenodd">
        <g id="Mail-login" transform="translate(-369.000000, -253.000000)" fill="#002432">
            <g id="bloch-LogoIcon" transform="translate(369.000000, 253.000000)">
                <g id="Group" transform="translate(0.000000, 153.684211)">
                    <path d="M28.3631909,28.294426 C28.3631909,24.9414882 27.3209014,22.2986239 25.2362912,20.3657538 C23.151681,18.4328838 20.6670314,17.4664632 17.7822678,17.4664632 C14.8975042,17.4664632 12.4128546,18.4526066 10.3282444,20.424923 C8.24363415,22.3972394 7.20134469,25.0598265 7.20134469,28.4127644 C7.20134469,31.7657022 8.24363415,34.4381508 10.3282444,36.4301904 C12.4128546,38.4222299 14.886976,39.4182347 17.750683,39.4182347 C20.6143899,39.4182347 23.0990395,38.402507 25.2047064,36.3710212 C27.3103733,34.3395353 28.3631909,31.6473638 28.3631909,28.294426 Z M19.3299252,11.6087129 C24.0045057,11.6087129 27.8999309,13.156958 31.0163179,16.2534947 C34.1327049,19.3500314 35.690875,23.3734965 35.690875,28.3240106 C35.690875,33.2745247 34.1221767,37.3374355 30.9847331,40.5128648 C27.8472894,43.6882942 23.9623923,45.2759851 19.3299252,45.2759851 C16.5925583,45.2759851 14.1921341,44.6744376 12.1285805,43.4713246 C10.065027,42.2682116 8.42263147,40.6607979 7.20134469,38.6490352 L7.20134469,44.7434623 L0,44.7434623 L0,0.958257713 L7.20134469,0.958257713 L7.20134469,17.9398168 C8.38051813,16.0463931 10.0123855,14.5178708 12.0969957,13.3542042 C14.1816059,12.1905375 16.5925583,11.6087129 19.3299252,11.6087129 Z M39.0874607,44.7434623 L39.0874607,0.958257713 L46.2888054,0.958257713 L46.2888054,44.7434623 L39.0874607,44.7434623 Z M77.7959033,28.4127644 C77.7959033,24.9020412 76.7746702,22.170424 74.7321733,20.2178308 C72.6896765,18.2652376 70.215555,17.2889556 67.3097347,17.2889556 C64.4039144,17.2889556 61.9613775,18.2652376 59.9820507,20.2178308 C58.0027238,22.170424 57.0130752,24.9119027 57.0130752,28.442349 C57.0130752,31.9727953 57.9816674,34.7142739 59.918881,36.6668671 C61.8560945,38.6194604 64.2670469,39.5957423 67.1518105,39.5957423 C70.0365741,39.5957423 72.5317519,38.6095989 74.6374188,36.6372825 C76.7430857,34.6649662 77.7959033,31.9234875 77.7959033,28.4127644 Z M54.612627,40.6312032 C51.3277867,37.5346665 49.6853911,33.4717557 49.6853911,28.442349 C49.6853911,23.4129422 51.3804276,19.3500314 54.7705512,16.2534947 C58.1606749,13.156958 62.3824736,11.6087129 67.4360741,11.6087129 C72.4896746,11.6087129 76.7114733,13.156958 80.101597,16.2534947 C83.4917207,19.3500314 85.1867571,23.4030808 85.1867571,28.4127644 C85.1867571,33.422448 83.4496079,37.4853588 79.9752576,40.6016186 C76.5009073,43.7178785 72.2264677,45.2759851 67.1518105,45.2759851 C62.0771533,45.2759851 57.8974673,43.7277399 54.612627,40.6312032 Z M90.9206213,40.6607878 C87.762121,37.5839743 86.1828946,33.5112021 86.1828946,28.442349 C86.1828946,23.3734959 87.7726492,19.3007237 90.9522062,16.2239101 C94.1317632,13.1470966 98.2272238,11.6087129 103.238711,11.6087129 C107.450045,11.6087129 110.934871,12.5455491 113.693295,14.4192497 C116.451718,16.2929502 118.315205,18.9653988 119.283812,22.4366756 L111.51394,22.4366756 C110.208427,19.0048452 107.450045,17.2889556 103.238711,17.2889556 C100.290777,17.2889556 97.942994,18.2652376 96.1952905,20.2178308 C94.447587,22.170424 93.5737483,24.9020412 93.5737483,28.4127644 C93.5737483,31.9234875 94.447587,34.6649662 96.1952905,36.6372825 C97.942994,38.6095989 100.290777,39.5957423 103.238711,39.5957423 C107.407931,39.5957423 110.166314,37.8798528 111.51394,34.4480223 L119.283812,34.4480223 C118.273092,37.7615138 116.37802,40.3945167 113.59854,42.3471099 C110.81906,44.2997031 107.365818,45.2759851 103.238711,45.2759851 C98.1851104,45.2759851 94.0791216,43.7376014 90.9206213,40.6607878 Z M129.944912,0.958257713 L129.944912,17.2889556 C132.261146,13.5021082 135.967064,11.6087129 141.062778,11.6087129 C144.979318,11.6087129 148.211468,12.8315307 150.759325,15.277203 C153.307182,17.7228753 154.581092,21.1349315 154.581092,25.5134738 L154.581092,44.7434623 L147.442917,44.7434623 L147.442917,26.5193501 C147.442917,23.6003219 146.663832,21.3617764 145.105638,19.8036465 C143.547445,18.2455165 141.420753,17.4664632 138.725499,17.4664632 C136.030246,17.4664632 133.893026,18.2455165 132.313776,19.8036465 C130.734526,21.3617764 129.944912,23.6003219 129.944912,26.5193501 L129.944912,44.7434623 L122.743568,44.7434623 L122.743568,0.958257713 L129.944912,0.958257713 Z" id="bloch"></path>
                </g>
                <g id="Page-1">
                    <path d="M41.1981724,87.2446154 C41.28045,87.7395716 41.7082935,88.10399 42.2074443,88.174698 C42.5365547,88.2236497 42.8327541,88.2508451 43.1289535,88.2236497 C47.160556,87.8157187 51.1318217,87.1249556 54.933047,85.7053558 C62.4422496,82.9042298 68.0645525,76.6329708 70.3463847,69.001942 C71.0210611,66.750163 71.4763305,64.4603104 71.7615595,62.1160671 C72.8366535,53.5331993 72.2991065,44.912258 72.3594434,36.3076338 C72.3704138,35.2524524 72.0413034,34.137441 71.6244302,33.1584067 C71.0484869,31.8258322 69.9679077,30.993653 68.4156036,30.9555794 C67.7244718,30.9447012 67.0333399,30.928384 66.3476932,30.928384 C59.5954445,30.928384 52.8322255,30.928384 46.0799768,30.9338231 C45.2517156,30.9338231 44.4179692,30.9011886 43.6006784,30.993653 C41.9990077,31.1840208 41.2420537,32.0325172 41.0774985,33.7023147 C41.0391023,34.1102456 41.0445875,34.5290548 41.0445875,34.9369858 L41.0445875,58.7220813 C41.0445875,59.1300123 41.0391023,59.5433824 41.0829837,59.9513134 C41.2475389,61.5830373 42.0154632,62.3880211 43.6884412,62.5675107 C44.5112172,62.654536 45.3449636,62.6110233 46.1677396,62.6219015 C47.824262,62.6327797 49.4862696,62.5675107 51.1373069,62.654536 C53.4520501,62.7850739 54.4503517,63.9327197 54.0225082,66.1029125 C53.7098533,67.702002 53.2381283,69.2902132 52.6512148,70.8131556 C51.1702179,74.6205114 48.5044236,77.2095133 44.4453951,78.2429384 C43.9133333,78.3789154 43.3538456,78.4387453 42.8382393,78.6182349 C41.8563932,78.966336 41.1597761,79.6353428 41.1268651,80.7068416 C41.0774985,82.8607171 40.8306657,85.036349 41.1981724,87.2446154 M25.0191578,132.8024 C24.0173332,133.264124 22.8602964,132.536559 22.8602964,131.438216 C22.8532413,128.38804 22.8461862,125.722634 22.8673515,123.057228 C22.8885168,121.126383 23.0578392,119.195537 23.043729,117.264692 C23.0296188,114.270483 22.4158249,113.626868 19.2551389,113.570901 C14.8245345,113.500943 10.39393,113.55691 5.97038062,113.542918 C4.72868255,113.535922 3.47287428,113.549914 2.25234152,113.354031 C1.1376353,113.179136 0.3333536,112.409596 0.164031137,111.255286 C0.015873981,110.219905 0.00881887832,109.163537 0.00881887832,108.107169 C0.00176377566,76.8288749 0.00176377566,45.5435852 0.00176377566,14.2652913 C0.00176377566,13.9085047 -0.00529132699,13.5657097 0.00881887832,13.2089231 C0.156976034,9.67603597 0.763714862,9.08838741 4.50291927,8.94847109 C5.3848071,8.91349201 6.27375003,8.93447946 7.15563787,8.93447946 L107.112332,8.93447946 C108.537463,8.93447946 109.955539,8.91349201 111.366559,9.01143343 C113.214996,9.15134976 113.955782,9.82994392 114.167435,11.5509147 C114.301482,12.6002871 114.308537,13.6566553 114.308537,14.7130236 C114.315592,45.4596354 114.315592,76.2202389 114.308537,106.966851 C114.308537,107.645445 114.308537,108.317043 114.273261,108.995637 C114.167435,111.472156 112.12851,113.423989 109.638059,113.514935 C108.798502,113.549914 107.951889,113.542918 107.105277,113.542918 C93.9404556,113.549914 80.768579,113.619872 67.6037574,113.500943 C63.6317346,113.465964 59.7373179,114.445378 56.2591523,116.341244 C46.9111413,121.434199 37.4573038,126.366249 28.0387417,131.340274 C27.093358,131.843973 26.1197538,132.291705 25.0191578,132.8024" id="Fill-1"></path>
                    <path d="M17.3476832,152.41085 L17.3476832,143.708055 C17.3476832,143.386247 17.6228322,143.120406 17.9685323,143.120406 L19.1467344,143.120406 C19.4853793,143.120406 19.7605283,143.386247 19.7605283,143.708055 L19.7605283,148.199369 C19.7605283,148.668088 20.3037713,148.947921 20.7200223,148.696072 L55.1841988,127.498749 C57.1596275,126.302464 59.459591,125.644858 61.8442157,125.602883 L122.412272,124.63746 C123.809182,124.616473 124.952109,123.637058 124.952109,122.44777 L125.064991,3.36498756 C125.064991,2.77034318 124.465307,2.28763187 123.731576,2.28763187 L9.44596827,2.37857748 C9.10732334,2.37857748 8.82511924,2.11273647 8.82511924,1.79092893 L8.82511924,0.678594164 C8.82511924,0.349790806 9.10026824,0.0909456096 9.44596827,0.0909456096 L123.731576,0 C125.791666,0 127.470781,1.5180921 127.470781,3.36498756 L127.372009,122.44777 C127.372009,124.910297 125.206093,126.883117 122.447547,126.925092 L61.8794912,127.890515 C59.9534482,127.918498 58.083846,128.45018 56.4964479,129.422598 L18.3071772,152.900557 C17.8909261,153.152407 17.3476832,152.872574 17.3476832,152.41085" id="Fill-3"></path>
                </g>
            </g>
        </g>
    </g>
</svg>