<?xml version="1.0" encoding="utf-8"?>
<!-- Generator: Adobe Illustrator 21.0.0, SVG Export Plug-In . SVG Version: 6.00 Build 0)  -->
<svg version="1.1" id="Layer_1" xmlns="http://www.w3.org/2000/svg" xmlns:xlink="http://www.w3.org/1999/xlink" x="0px" y="0px"
	 viewBox="0 0 234 237" style="enable-background:new 0 0 234 237;" xml:space="preserve">
<style type="text/css">
	.st0{fill:#6D7683;}
	.st1{fill:#3B4A5D;}
	.st2{fill:#FFFFFF;}
	.st3{fill:#00B1D2;}
	.st4{fill:#008EA8;}
	.st5{fill:#CCCCCC;}
	.st6{opacity:0.1786;}
	.st7{fill:#2A566D;}
	.st8{fill:#EFF4F3;}
	.st9{filter:url(#Adobe_OpacityMaskFilter);}
	.st10{mask:url(#mask-4);fill:#8AA3BD;}
	.st11{fill:#8AA3BD;}
	.st12{opacity:0.4448;fill:#CCCCCC;enable-background:new    ;}
	.st13{opacity:0.6417;fill:#213249;enable-background:new    ;}
</style>
<title>rocket Ship</title>
<desc>Created with Sketch.</desc>
<g id="signing-Up-process">
	<g id="Resigter-Copy" transform="translate(-364.000000, -280.000000)">
		<g id="rocket-Ship" transform="translate(368.000000, 280.000000)">
			<g id="Group-5">
				<g id="bloch-LogoIcon">
					<g id="Group-4" transform="translate(89.000000, 18.000000)">
						<g id="Group-9" transform="translate(0.000000, 38.611933)">
							<ellipse id="Oval" class="st0" cx="6.5" cy="8.5" rx="6.5" ry="6.5"/>
							<circle id="Oval-Copy" class="st0" cx="18" cy="3" r="3"/>
							<path id="Path-2" class="st1" d="M8.1,2c0,0,0,0.2-0.1,0.2c-5.5,1.5-6.2,9.8-3,11.7c3.5,2.1-1.1,0.4-1.1,0.4S0,14.3,0,9
								c0-2.8,0.7-4.9,2.8-6C4.7,2.1,8.1,2,8.1,2z"/>
						</g>
						
							<g id="Group-9-Copy" transform="translate(117.931567, 81.458191) rotate(164.000000) translate(-117.931567, -81.458191) translate(102.431567, 70.458191)">
							<ellipse id="Oval-Copy_1_" class="st1" cx="26.6" cy="4.4" rx="4.4" ry="4.4"/>
							<g id="Group-10" transform="translate(0.000000, 2.000000)">
								<ellipse id="Oval_1_" class="st0" cx="9.6" cy="10.5" rx="9.6" ry="9.5"/>
								<path id="Path-2_1_" class="st1" d="M11.9,0.9c0,0,0,0.3-0.2,0.3C3.6,3.5,2.5,15.6,7.3,18.5c5.2,3.1-1.6,0.5-1.6,0.5
									S0,19,0,11.2c0-4.1,1-7.2,4.1-8.8C7,1.1,11.9,0.9,11.9,0.9z"/>
							</g>
						</g>
						
							<g id="Group-10_1_" transform="translate(41.445690, 21.747649) rotate(71.000000) translate(-41.445690, -21.747649) translate(24.945690, 4.747649)">
							
								<ellipse id="Oval_2_" transform="matrix(2.840756e-06 1 -1 2.840756e-06 33.1052 0.4813)" class="st0" cx="16.3" cy="16.8" rx="16.2" ry="16.3"/>
							<path id="Path-2_2_" class="st1" d="M20.3,0.6c0,0,0,0.5-0.4,0.5C6.2,5,4.3,25.6,12.3,30.4c8.8,5.3-2.6,0.9-2.6,0.9
								S0,31.2,0,18.1C0,11.2,1.7,5.9,7.1,3.2C11.8,0.8,20.3,0.6,20.3,0.6z"/>
						</g>
					</g>
					<g id="Group-766" transform="translate(1.000000, 0.000000)">
						<path id="Fill-2" class="st2" d="M162.2,196L162.2,196c-0.3-0.9-0.7-0.9-1-0.9h0C161.6,195.1,161.9,195.1,162.2,196"/>
						<path id="Fill-4" class="st2" d="M160,195c-0.3,0-0.6-0.1-0.9-0.1C159.4,195,159.7,195,160,195L160,195z"/>
						<path id="Fill-6" class="st2" d="M163.4,196.1L163.4,196.1c-0.3-0.2-0.7-0.5-1-0.5h0C162.7,195.6,163,195.9,163.4,196.1"/>
						<path id="Fill-8" class="st3" d="M155.1,188.8C155.1,188.8,155.1,188.8,155.1,188.8c-0.1-0.2-0.2-0.3-0.3-0.5c0,0,0,0,0,0
							C154.9,188.4,155,188.6,155.1,188.8"/>
						<path id="Fill-10" class="st3" d="M155.7,190C155.7,190,155.7,190,155.7,190c-0.1-0.2-0.2-0.3-0.3-0.5l0,0
							C155.5,189.6,155.6,189.8,155.7,190"/>
						<path id="Fill-12" class="st3" d="M155.4,189.4C155.4,189.4,155.4,189.4,155.4,189.4c-0.1-0.2-0.2-0.3-0.3-0.5l0,0
							C155.2,189,155.3,189.2,155.4,189.4"/>
						<path id="Fill-14" class="st3" d="M154.7,188.2L154.7,188.2c-0.1-0.2-0.2-0.3-0.3-0.5c0,0,0,0,0,0
							C154.5,187.9,154.6,188,154.7,188.2"/>
						<path id="Fill-16" class="st3" d="M153.8,187c-0.1-0.1-0.2-0.2-0.3-0.3C153.6,186.8,153.7,186.9,153.8,187L153.8,187z"/>
						<path id="Fill-18" class="st3" d="M154.3,187.6L154.3,187.6c-0.1-0.1-0.2-0.3-0.3-0.4c0,0,0,0,0,0
							C154.1,187.3,154.2,187.5,154.3,187.6"/>
						<path id="Fill-20" class="st3" d="M156,190.6C156,190.6,156,190.6,156,190.6c-0.1-0.2-0.1-0.4-0.2-0.5c0,0,0,0,0,0
							C155.8,190.2,155.9,190.4,156,190.6"/>
						<path id="Fill-22" class="st3" d="M156.6,193.2C156.6,193.2,156.6,193.2,156.6,193.2c0-0.1-0.1-0.3-0.1-0.4c0,0.1,0,0.1,0,0.2
							C156.6,193,156.6,193.1,156.6,193.2"/>
						<path id="Fill-24" class="st3" d="M156.7,193.8c0,0.1,0,0.2,0,0.3c0-0.2,0-0.3,0-0.5c0,0,0,0,0,0
							C156.7,193.7,156.7,193.8,156.7,193.8"/>
						<path id="Fill-26" class="st3" d="M156.8,194.8c0,0.1,0,0.1,0,0.2c0-0.2,0-0.4,0-0.6c0,0,0,0,0,0
							C156.8,194.5,156.8,194.6,156.8,194.8"/>
						<path id="Fill-28" class="st3" d="M156.4,191.9C156.4,191.9,156.4,191.9,156.4,191.9c0-0.2-0.1-0.3-0.2-0.5c0,0,0,0,0,0
							C156.3,191.6,156.3,191.7,156.4,191.9"/>
						<path id="Fill-30" class="st3" d="M156.5,192.5C156.5,192.5,156.5,192.5,156.5,192.5c0-0.2-0.1-0.3-0.1-0.5c0,0,0,0,0,0.1
							C156.4,192.2,156.5,192.4,156.5,192.5"/>
						<path id="Fill-32" class="st3" d="M156.2,191.2C156.2,191.2,156.2,191.2,156.2,191.2c-0.1-0.2-0.1-0.4-0.2-0.5c0,0,0,0,0,0
							C156.1,190.9,156.1,191.1,156.2,191.2"/>
						<path id="Fill-34" class="st4" d="M156.8,195.2V195C156.8,195,156.8,195.1,156.8,195.2C156.8,195.2,156.8,195.2,156.8,195.2"
							/>
						<path id="Fill-36" class="st4" d="M156.8,195.1L156.8,195.1C156.8,195.1,156.8,195.1,156.8,195.1
							C156.8,195.1,156.8,195.1,156.8,195.1"/>
						<path id="Fill-38" class="st2" d="M154.3,187.6c-0.1-0.1-0.2-0.3-0.3-0.4C154.1,187.3,154.2,187.5,154.3,187.6"/>
						<path id="Fill-40" class="st2" d="M108.1,146.7c0.1,0.2,0.2,0.4,0.3,0.6C108.3,147.2,108.2,146.9,108.1,146.7"/>
						<path id="Fill-42" class="st2" d="M155.1,188.8c-0.1-0.2-0.2-0.3-0.3-0.5C154.9,188.4,155,188.6,155.1,188.8"/>
						<path id="Fill-44" class="st2" d="M153.5,186.7C153.5,186.7,153.5,186.7,153.5,186.7c0.1,0.1,0.2,0.2,0.3,0.3
							C153.7,186.9,153.6,186.8,153.5,186.7"/>
						<path id="Fill-46" class="st2" d="M155.7,190c-0.1-0.2-0.2-0.3-0.3-0.5C155.5,189.6,155.6,189.8,155.7,190"/>
						<path id="Fill-48" class="st2" d="M103.3,168.9c0.2-0.1,0.3-0.3,0.5-0.4c0,0,0,0,0,0c0,0,0,0,0,0c0.1,0,0.1-0.1,0.2-0.2
							C103.8,168.5,103.6,168.7,103.3,168.9"/>
						<path id="Fill-50" class="st2" d="M155.4,189.4c-0.1-0.2-0.2-0.3-0.3-0.5C155.2,189,155.3,189.2,155.4,189.4"/>
						<path id="Fill-52" class="st2" d="M107.7,146c0.1,0.2,0.3,0.4,0.4,0.6C107.9,146.4,107.8,146.2,107.7,146"/>
						<path id="Fill-54" class="st2" d="M105.5,143.3c0.1,0.1,0.2,0.3,0.4,0.4C105.8,143.5,105.6,143.4,105.5,143.3"/>
						<path id="Fill-56" class="st2" d="M107.2,145.3c0.1,0.2,0.3,0.4,0.4,0.6C107.4,145.7,107.3,145.5,107.2,145.3"/>
						<path id="Fill-58" class="st2" d="M106.7,144.6c0.1,0.2,0.3,0.4,0.4,0.6C106.9,145,106.8,144.8,106.7,144.6"/>
						<path id="Fill-60" class="st2" d="M106.1,143.9c0.1,0.2,0.3,0.3,0.4,0.5C106.4,144.3,106.2,144.1,106.1,143.9"/>
						<path id="Fill-62" class="st2" d="M154.7,188.2c-0.1-0.2-0.2-0.3-0.3-0.5C154.5,187.9,154.6,188,154.7,188.2"/>
						<path id="Fill-64" class="st2" d="M161.2,195.2c-0.3-0.1-0.7-0.2-1-0.2C160.5,195.1,160.8,195.1,161.2,195.2"/>
						<path id="Fill-66" class="st2" d="M160,195c-0.3,0-0.5-0.1-0.8-0.1c-0.1,0-0.1,0-0.2,0C159.3,195,159.6,195,160,195"/>
						<path id="Fill-68" class="st2" d="M156,190.6c-0.1-0.2-0.1-0.3-0.2-0.5C155.8,190.2,155.9,190.4,156,190.6"/>
						<path id="Fill-70" class="st2" d="M156.8,194.7c0-0.1,0-0.3,0-0.4C156.8,194.5,156.8,194.6,156.8,194.7"/>
						<path id="Fill-72" class="st2" d="M163.4,195.9c-0.3-0.2-0.7-0.4-1-0.5C162.7,195.5,163,195.7,163.4,195.9"/>
						<path id="Fill-74" class="st2" d="M162.2,195.5c-0.3-0.1-0.7-0.3-1-0.4C161.6,195.2,161.9,195.4,162.2,195.5"/>
						<path id="Fill-76" class="st2" d="M156.4,191.9c0-0.2-0.1-0.3-0.2-0.5C156.3,191.5,156.3,191.7,156.4,191.9"/>
						<path id="Fill-78" class="st2" d="M156.2,191.2c-0.1-0.2-0.1-0.3-0.2-0.5C156.1,190.9,156.1,191.1,156.2,191.2"/>
						<path id="Fill-80" class="st2" d="M156.6,193.1c0-0.1,0-0.2-0.1-0.3C156.6,192.9,156.6,193,156.6,193.1"/>
						<path id="Fill-82" class="st2" d="M156.7,193.8c0-0.1,0-0.1,0-0.2C156.7,193.7,156.7,193.8,156.7,193.8"/>
						<path id="Fill-84" class="st2" d="M156.5,192.5c0-0.1-0.1-0.3-0.1-0.4C156.4,192.2,156.5,192.4,156.5,192.5"/>
						<path id="Fill-86" class="st2" d="M110,152.2c0,0.2,0.1,0.5,0.1,0.7C110.1,152.7,110.1,152.5,110,152.2"/>
						<path id="Fill-88" class="st2" d="M109.6,160.1c-0.1,0.3-0.2,0.5-0.3,0.8C109.4,160.6,109.5,160.4,109.6,160.1"/>
						<path id="Fill-90" class="st2" d="M109.3,160.9c-0.1,0.3-0.2,0.5-0.3,0.8C109.1,161.4,109.2,161.1,109.3,160.9"/>
						<path id="Fill-92" class="st2" d="M109.1,161.6c-0.1,0.3-0.2,0.5-0.3,0.7C108.8,162.1,108.9,161.9,109.1,161.6"/>
						<path id="Fill-94" class="st2" d="M109.8,159.4c-0.1,0.3-0.1,0.5-0.2,0.8C109.6,159.9,109.7,159.6,109.8,159.4"/>
						<path id="Fill-96" class="st2" d="M110,158.6c-0.1,0.3-0.1,0.5-0.2,0.8C109.8,159.1,109.9,158.9,110,158.6"/>
						<path id="Fill-98" class="st2" d="M108.7,162.4c-0.1,0.2-0.2,0.5-0.4,0.7C108.5,162.9,108.6,162.6,108.7,162.4"/>
						<path id="Fill-100" class="st2" d="M108,163.8c-0.2,0.2-0.3,0.5-0.5,0.7C107.7,164.3,107.8,164,108,163.8"/>
						<path id="Fill-102" class="st2" d="M107.1,165.2c-0.2,0.3-0.4,0.5-0.6,0.8C106.7,165.7,106.9,165.4,107.1,165.2"/>
						<path id="Fill-104" class="st2" d="M106.8,170.9c0.3,0.3,0.6,0.6,0.9,0.9C107.4,171.5,107.1,171.2,106.8,170.9"/>
						<path id="Fill-106" class="st2" d="M110.1,157.8c0,0.3-0.1,0.5-0.1,0.8C110,158.3,110,158.1,110.1,157.8"/>
						<path id="Fill-108" class="st2" d="M108.4,163.1c-0.1,0.2-0.3,0.5-0.4,0.7C108.1,163.6,108.3,163.3,108.4,163.1"/>
						<path id="Fill-110" class="st2" d="M107.6,164.5c-0.2,0.3-0.4,0.5-0.5,0.7C107.2,165,107.4,164.7,107.6,164.5"/>
						<path id="Fill-112" class="st2" d="M110.3,155.2c0-0.2,0-0.3,0-0.5c0,0.2,0,0.4,0,0.6C110.3,155.3,110.3,155.3,110.3,155.2"/>
						<path id="Fill-114" class="st2" d="M109.7,150.6c0.1,0.2,0.1,0.5,0.2,0.7C109.8,151.1,109.7,150.8,109.7,150.6"/>
						<path id="Fill-116" class="st2" d="M109.4,149.8c0.1,0.2,0.1,0.5,0.2,0.7C109.6,150.3,109.5,150,109.4,149.8"/>
						<path id="Fill-118" class="st2" d="M109.9,151.4c0.1,0.2,0.1,0.5,0.1,0.7C110,151.9,109.9,151.7,109.9,151.4"/>
						<path id="Fill-120" class="st2" d="M153,186.2c0.1,0.1,0.1,0.1,0.2,0.2C153.1,186.3,153.1,186.2,153,186.2"/>
						<path id="Fill-122" class="st2" d="M109.2,149c0.1,0.2,0.2,0.5,0.3,0.7C109.3,149.5,109.3,149.2,109.2,149"/>
						<path id="Fill-124" class="st2" d="M108.8,148.2c0.1,0.2,0.2,0.5,0.3,0.7C109,148.7,108.9,148.5,108.8,148.2"/>
						<path id="Fill-126" class="st2" d="M108.5,147.5c0.1,0.2,0.2,0.4,0.3,0.7C108.7,147.9,108.6,147.7,108.5,147.5"/>
						<path id="Fill-128" class="st2" d="M110.3,155.5c0,0.3,0,0.5,0,0.8C110.3,156,110.3,155.7,110.3,155.5"/>
						<path id="Fill-130" class="st2" d="M110.2,156.3c0,0.3,0,0.5-0.1,0.8C110.2,156.8,110.2,156.5,110.2,156.3"/>
						<path id="Fill-132" class="st2" d="M110.2,153.9c0,0.2,0,0.4,0,0.7C110.3,154.3,110.2,154.1,110.2,153.9"/>
						<path id="Fill-134" class="st2" d="M110.2,157c0,0.3-0.1,0.5-0.1,0.8C110.1,157.6,110.2,157.3,110.2,157"/>
						<path id="Fill-136" class="st2" d="M110.1,153.1c0,0.2,0.1,0.5,0.1,0.7C110.2,153.5,110.2,153.3,110.1,153.1"/>
						<path id="Fill-138" class="st2" d="M139.6,170.4c0.3-0.2,0.6-0.3,0.9-0.4C140.2,170.1,139.9,170.2,139.6,170.4"/>
						<path id="Fill-140" class="st2" d="M128.5,152.6c0,0.1,0,0.3,0,0.4C128.5,152.9,128.5,152.8,128.5,152.6"/>
						<path id="Fill-142" class="st2" d="M151.9,185.2c0.3,0.3,0.6,0.6,0.9,0.9C152.5,185.8,152.2,185.5,151.9,185.2"/>
						<path id="Fill-144" class="st2" d="M107.5,171.6c0.2,0.3,0.5,0.5,0.7,0.8C108,172.1,107.8,171.9,107.5,171.6"/>
						<path id="Fill-146" class="st2" d="M128,148.6c0.2,0.4,0.3,0.7,0.4,1.1C128.3,149.3,128.2,148.9,128,148.6"/>
						<path id="Fill-148" class="st2" d="M128.3,149.9c0.1,0.3,0.2,0.7,0.2,1C128.4,150.5,128.4,150.2,128.3,149.9"/>
						<path id="Fill-150" class="st2" d="M128.4,154.4c0,0.1,0,0.3-0.1,0.4C128.3,154.6,128.3,154.5,128.4,154.4"/>
						<path id="Fill-152" class="st2" d="M127.7,147.3c0.2,0.3,0.4,0.7,0.5,1C128.1,148,127.9,147.6,127.7,147.3"/>
						<path id="Fill-154" class="st2" d="M138.7,171c0.2-0.2,0.4-0.3,0.6-0.4C139.1,170.7,138.9,170.8,138.7,171"/>
						<path id="Fill-156" class="st2" d="M128.3,155.1c0,0.2-0.1,0.3-0.1,0.5C128.2,155.5,128.2,155.3,128.3,155.1"/>
						<path id="Fill-158" class="st2" d="M139.1,170.7c0.3-0.2,0.6-0.4,0.9-0.5C139.7,170.3,139.4,170.5,139.1,170.7"/>
						<path id="Fill-160" class="st2" d="M128.1,155.9c0,0.2-0.1,0.3-0.1,0.5C128,156.3,128.1,156.1,128.1,155.9"/>
						<path id="Fill-162" class="st2" d="M127.9,156.7c0,0.1-0.1,0.3-0.1,0.4C127.8,157,127.9,156.9,127.9,156.7"/>
						<path id="Fill-164" class="st2" d="M128.4,153.6c0,0,0,0.1,0,0.1C128.4,153.6,128.4,153.6,128.4,153.6"/>
						<path id="Fill-166" class="st2" d="M119.9,137.7c0.3,0.3,0.6,0.6,0.9,0.9C120.5,138.2,120.2,137.9,119.9,137.7"/>
						<path id="Fill-168" class="st2" d="M121,138.3c0.3,0.3,0.6,0.6,0.9,0.9C121.6,138.9,121.3,138.6,121,138.3"/>
						<path id="Fill-170" class="st2" d="M122.1,139.1c0.3,0.3,0.6,0.6,0.9,0.9C122.7,139.7,122.4,139.4,122.1,139.1"/>
						<path id="Fill-172" class="st2" d="M127.3,146.2c0.3,0.3,0.5,0.7,0.7,1.1C127.8,146.9,127.6,146.5,127.3,146.2"/>
						<path id="Fill-174" class="st2" d="M123,139.9c0.3,0.3,0.6,0.6,0.9,0.9C123.6,140.5,123.3,140.2,123,139.9"/>
						<path id="Fill-176" class="st2" d="M118.7,137c0.4,0.3,0.7,0.6,1,0.9C119.4,137.6,119.1,137.3,118.7,137"/>
						<path id="Fill-178" class="st2" d="M117.4,136.5c0.4,0.3,0.7,0.5,1.1,0.9C118.1,137,117.8,136.7,117.4,136.5"/>
						<path id="Fill-180" class="st2" d="M126.2,143.9c0.3,0.3,0.6,0.6,0.9,0.9C126.8,144.5,126.5,144.2,126.2,143.9"/>
						<path id="Fill-182" class="st2" d="M126.8,144.9c0.3,0.3,0.6,0.7,0.8,1C127.3,145.6,127.1,145.3,126.8,144.9"/>
						<path id="Fill-184" class="st2" d="M124,140.8c0.3,0.3,0.6,0.6,0.9,0.9C124.6,141.4,124.3,141.1,124,140.8"/>
						<path id="Fill-186" class="st2" d="M125.5,142.8c0.3,0.3,0.6,0.6,0.9,0.9C126.1,143.4,125.8,143.1,125.5,142.8"/>
						<path id="Fill-188" class="st2" d="M124.8,141.8c0.3,0.3,0.6,0.6,0.9,0.9C125.4,142.4,125.1,142.1,124.8,141.8"/>
						<path id="Fill-190" class="st2" d="M128.4,151.1c0.1,0.4,0.1,0.7,0.1,1.1C128.5,151.8,128.5,151.4,128.4,151.1"/>
						<path id="Fill-192" class="st2" d="M149.4,172.8c0.1,0.1,0.1,0.2,0.2,0.3C149.5,173,149.4,172.9,149.4,172.8"/>
						<path id="Fill-194" class="st2" d="M149.8,173.5c0,0.1,0,0.1,0.1,0.2C149.8,173.6,149.8,173.5,149.8,173.5"/>
						<path id="Fill-196" class="st2" d="M150.3,174.7c0,0.1,0.1,0.3,0.1,0.4C150.3,175,150.3,174.9,150.3,174.7"/>
						<path id="Fill-198" class="st2" d="M150,174.1c0.1,0.1,0.1,0.3,0.1,0.4C150.1,174.4,150.1,174.2,150,174.1"/>
						<path id="Fill-200" class="st2" d="M149,172.2c0.1,0.1,0.2,0.2,0.3,0.3C149.1,172.4,149.1,172.3,149,172.2"/>
						<path id="Fill-202" class="st2" d="M148.5,171.7c0.1,0.1,0.2,0.2,0.3,0.3C148.7,171.9,148.6,171.8,148.5,171.7"/>
						<path id="Fill-204" class="st2" d="M148.1,171.2C148.1,171.2,148.1,171.3,148.1,171.2C148.1,171.3,148.1,171.2,148.1,171.2"/>
						<path id="Fill-206" class="st2" d="M150.4,178.3c0,0.1-0.1,0.3-0.1,0.4C150.4,178.6,150.4,178.5,150.4,178.3"/>
						<path id="Fill-208" class="st2" d="M150.5,177.6c0,0.1,0,0.3-0.1,0.4C150.5,177.9,150.5,177.8,150.5,177.6"/>
						<path id="Fill-210" class="st2" d="M150.5,176.3c0,0.1,0,0.1,0,0.2C150.5,176.4,150.5,176.3,150.5,176.3"/>
						<path id="Fill-212" class="st2" d="M150.6,176.9c0,0.1,0,0.3,0,0.4C150.6,177.2,150.6,177.1,150.6,176.9"/>
						<path id="Fill-214" class="st2" d="M150.4,175.4c0,0.1,0.1,0.2,0.1,0.4C150.5,175.7,150.4,175.5,150.4,175.4"/>
						<path id="Fill-216" class="st2" d="M146.1,170c0.1,0.1,0.2,0.1,0.4,0.2C146.4,170.1,146.3,170,146.1,170"/>
						<path id="Fill-218" class="st2" d="M142,169.5c0.2,0,0.5-0.1,0.7-0.1C142.5,169.4,142.2,169.4,142,169.5"/>
						<path id="Fill-220" class="st2" d="M142.6,169.4c0.3,0,0.5,0,0.8,0C143.1,169.3,142.8,169.4,142.6,169.4"/>
						<path id="Fill-222" class="st2" d="M140.8,169.8c0.3-0.1,0.6-0.2,0.9-0.3C141.4,169.6,141.1,169.7,140.8,169.8"/>
						<path id="Fill-224" class="st2" d="M143.1,169.3c0.3,0,0.6,0,0.9,0C143.7,169.3,143.4,169.3,143.1,169.3"/>
						<path id="Fill-226" class="st2" d="M141.3,169.6c0.3-0.1,0.6-0.1,0.9-0.2C141.9,169.5,141.6,169.6,141.3,169.6"/>
						<path id="Fill-228" class="st2" d="M147.4,170.7c0.1,0.1,0.2,0.1,0.3,0.2C147.6,170.8,147.5,170.8,147.4,170.7"/>
						<path id="Fill-230" class="st2" d="M146.8,170.3c0.1,0.1,0.3,0.1,0.4,0.2C147,170.5,146.9,170.4,146.8,170.3"/>
						<path id="Fill-232" class="st2" d="M143.8,169.4c0.3,0,0.5,0.1,0.8,0.1C144.3,169.4,144,169.4,143.8,169.4"/>
						<path id="Fill-234" class="st2" d="M140.2,170c0.2-0.1,0.5-0.2,0.7-0.3C140.7,169.8,140.5,169.9,140.2,170"/>
						<path id="Fill-236" class="st2" d="M144.4,169.4c0.2,0,0.5,0.1,0.7,0.1C144.9,169.5,144.6,169.5,144.4,169.4"/>
						<path id="Fill-238" class="st2" d="M144.9,169.6c0.3,0.1,0.6,0.2,0.9,0.3C145.5,169.7,145.2,169.6,144.9,169.6"/>
						<path id="Fill-240" class="st2" d="M106.7,165.8c-0.3,0.3-0.6,0.6-0.9,0.9C106.1,166.4,106.4,166.1,106.7,165.8"/>
						<path id="Fill-242" class="st2" d="M114.8,183.2C114.8,183.2,114.8,183.2,114.8,183.2C114.8,183.2,114.8,183.2,114.8,183.2"/>
						<path id="Fill-244" class="st2" d="M119,193.5c-0.1,0.2-0.2,0.5-0.4,0.7C118.8,194,118.9,193.7,119,193.5"/>
						<path id="Fill-246" class="st2" d="M114.1,183c0.1,0,0.2,0,0.2,0.1C114.3,183,114.2,183,114.1,183"/>
						<path id="Fill-248" class="st2" d="M112.8,182.8c0.1,0,0.2,0,0.2,0C112.9,182.8,112.8,182.8,112.8,182.8"/>
						<path id="Fill-250" class="st2" d="M119.3,192.8c-0.1,0.2-0.2,0.5-0.3,0.7C119.1,193.3,119.2,193.1,119.3,192.8"/>
						<path id="Fill-252" class="st2" d="M115.4,183.5c0.1,0,0.2,0.1,0.3,0.1C115.6,183.6,115.5,183.5,115.4,183.5"/>
						<path id="Fill-254" class="st2" d="M119.5,192.2c-0.1,0.2-0.1,0.5-0.2,0.7C119.3,192.6,119.4,192.4,119.5,192.2"/>
						<path id="Fill-256" class="st2" d="M118.8,194.1c-0.2,0.3-0.3,0.5-0.5,0.7C118.4,194.6,118.6,194.4,118.8,194.1"/>
						<path id="Fill-258" class="st2" d="M117.8,211.7c-0.2,0.3-0.4,0.6-0.6,0.9C117.4,212.3,117.6,212,117.8,211.7"/>
						<path id="Fill-260" class="st2" d="M110.7,181.4c0,0.3-0.1,0.6-0.1,0.9C110.6,182,110.6,181.7,110.7,181.4"/>
						<path id="Fill-262" class="st2" d="M110.7,179.9c0,0,0-0.1,0-0.1c0,0.3,0,0.6,0,0.9C110.7,180.4,110.7,180.2,110.7,179.9"/>
						<path id="Fill-264" class="st2" d="M115.1,199.2c0.3,0.3,0.6,0.6,0.9,0.9C115.8,199.8,115.5,199.5,115.1,199.2"/>
						<path id="Fill-266" class="st2" d="M115.7,199.9c0.3,0.3,0.6,0.6,0.9,0.9C116.4,200.5,116.1,200.2,115.7,199.9"/>
						<path id="Fill-268" class="st2" d="M110.7,179.1c0,0.3,0,0.6,0,0.9C110.7,179.7,110.7,179.4,110.7,179.1"/>
						<path id="Fill-270" class="st2" d="M118.5,194.7c-0.3,0.3-0.6,0.6-0.9,0.9C117.9,195.3,118.2,195,118.5,194.7"/>
						<path id="Fill-272" class="st2" d="M110.7,180.6c0,0.3,0,0.6-0.1,0.8C110.7,181.2,110.7,180.9,110.7,180.6"/>
						<path id="Fill-274" class="st2" d="M114.4,198.4c0.3,0.3,0.6,0.6,0.9,0.9C115,199,114.7,198.7,114.4,198.4"/>
						<path id="Fill-276" class="st2" d="M119.6,190.8c0,0.2,0,0.5-0.1,0.7C119.6,191.2,119.6,191,119.6,190.8"/>
						<path id="Fill-278" class="st2" d="M119,187.2c0.1,0.2,0.2,0.4,0.2,0.6C119.1,187.6,119.1,187.4,119,187.2"/>
						<path id="Fill-280" class="st2" d="M119.6,190.3c0-0.1,0-0.2,0-0.3c0,0.2,0,0.4,0,0.7C119.6,190.6,119.6,190.5,119.6,190.3"/>
						<path id="Fill-282" class="st2" d="M118.3,207.5c0-0.1,0-0.3,0-0.4c0,0.3,0,0.6,0,0.9C118.3,207.8,118.3,207.7,118.3,207.5"/>
						<path id="Fill-284" class="st2" d="M118,210.8c-0.1,0.3-0.3,0.6-0.4,0.9C117.7,211.4,117.9,211.1,118,210.8"/>
						<path id="Fill-286" class="st2" d="M118.2,206.1c0.1,0.3,0.1,0.6,0.1,0.9C118.3,206.7,118.3,206.4,118.2,206.1"/>
						<path id="Fill-288" class="st2" d="M118.3,208c0,0.3-0.1,0.6-0.1,0.9C118.3,208.6,118.3,208.3,118.3,208"/>
						<path id="Fill-290" class="st2" d="M119.4,188.6c0,0.2,0.1,0.4,0.1,0.6C119.5,189,119.5,188.8,119.4,188.6"/>
						<path id="Fill-292" class="st2" d="M119.3,187.9c0.1,0.2,0.1,0.4,0.2,0.6C119.4,188.3,119.3,188.1,119.3,187.9"/>
						<path id="Fill-294" class="st2" d="M118.7,186.5c0.1,0.2,0.2,0.4,0.3,0.6C118.8,186.9,118.8,186.7,118.7,186.5"/>
						<path id="Fill-296" class="st2" d="M119.6,191.5c0,0.2-0.1,0.5-0.1,0.7C119.5,191.9,119.5,191.7,119.6,191.5"/>
						<path id="Fill-298" class="st2" d="M116.6,184.2c0.1,0.1,0.2,0.1,0.2,0.2C116.8,184.3,116.7,184.3,116.6,184.2"/>
						<path id="Fill-300" class="st2" d="M118.2,209.8c-0.1,0.3-0.2,0.6-0.4,0.9C118,210.4,118.1,210.1,118.2,209.8"/>
						<path id="Fill-302" class="st2" d="M116.1,183.9C116.1,183.9,116.1,183.9,116.1,183.9C116.1,183.9,116.1,183.9,116.1,183.9"/>
						<path id="Fill-304" class="st2" d="M110.6,178.3c0,0.3,0.1,0.6,0.1,0.9C110.7,178.9,110.7,178.6,110.6,178.3"/>
						<path id="Fill-306" class="st2" d="M118.3,185.9c0.1,0.2,0.2,0.3,0.3,0.5C118.5,186.2,118.4,186.1,118.3,185.9"/>
						<path id="Fill-308" class="st2" d="M117.8,185.3c0.1,0.1,0.2,0.3,0.3,0.4C118,185.6,117.9,185.4,117.8,185.3"/>
						<path id="Fill-310" class="st2" d="M118.3,209c-0.1,0.3-0.1,0.6-0.2,0.9C118.1,209.6,118.2,209.3,118.3,209"/>
						<path id="Fill-312" class="st2" d="M110.6,182.2c-0.1,0.3-0.2,0.6-0.3,0.9C110.4,182.8,110.6,182.5,110.6,182.2"/>
						<path id="Fill-314" class="st2" d="M109.4,174.4c0.2,0.3,0.3,0.6,0.4,0.9C109.7,175,109.6,174.7,109.4,174.4"/>
						<path id="Fill-316" class="st2" d="M110.1,175.9c0.1,0.3,0.2,0.6,0.3,0.9C110.3,176.5,110.2,176.2,110.1,175.9"/>
						<path id="Fill-318" class="st2" d="M119.6,189.4c0,0.2,0,0.4,0.1,0.6C119.6,189.8,119.6,189.6,119.6,189.4"/>
						<path id="Fill-320" class="st2" d="M128.1,227.4c0-0.1,0-0.3,0-0.4c0,0.2,0,0.4,0,0.6C128.1,227.5,128.1,227.4,128.1,227.4"/>
						<path id="Fill-322" class="st2" d="M109.7,175c0.2,0.3,0.3,0.6,0.5,0.9C110.1,175.6,109.9,175.3,109.7,175"/>
						<path id="Fill-324" class="st2" d="M108.5,172.8c0.3,0.3,0.5,0.6,0.8,0.9C109,173.4,108.8,173.1,108.5,172.8"/>
						<path id="Fill-326" class="st2" d="M118.1,205.2c0.1,0.3,0.1,0.6,0.2,0.9C118.2,205.8,118.2,205.5,118.1,205.2"/>
						<path id="Fill-328" class="st2" d="M116.8,201.6c0.2,0.3,0.4,0.6,0.6,0.9C117.3,202.2,117,201.9,116.8,201.6"/>
						<path id="Fill-330" class="st2" d="M110.3,176.7c0.1,0.3,0.2,0.6,0.2,0.9C110.5,177.3,110.4,177,110.3,176.7"/>
						<path id="Fill-332" class="st2" d="M108,172.2c0.3,0.3,0.5,0.6,0.7,0.9C108.5,172.8,108.3,172.5,108,172.2"/>
						<path id="Fill-334" class="st2" d="M117.9,204.2c0.1,0.3,0.2,0.6,0.3,0.9C118.1,204.8,118,204.5,117.9,204.2"/>
						<path id="Fill-336" class="st2" d="M117.6,203.3c0.2,0.3,0.3,0.6,0.4,0.9C117.9,203.9,117.7,203.6,117.6,203.3"/>
						<path id="Fill-338" class="st2" d="M109,173.7c0.2,0.3,0.3,0.6,0.5,0.8C109.4,174.2,109.2,173.9,109,173.7"/>
						<path id="Fill-340" class="st2" d="M117.2,202.4c0.2,0.3,0.4,0.6,0.6,0.9C117.6,203,117.5,202.7,117.2,202.4"/>
						<path id="Fill-342" class="st2" d="M116.3,200.8c0.3,0.3,0.6,0.6,0.8,0.9C116.9,201.4,116.6,201.1,116.3,200.8"/>
						<path id="Fill-344" class="st2" d="M110.5,177.4c0.1,0.3,0.2,0.6,0.2,0.9C110.6,178,110.6,177.7,110.5,177.4"/>
						<path id="Fill-346" class="st2" d="M159.3,195c-0.1,0-0.2,0-0.3,0C159.1,195,159.2,194.9,159.3,195"/>
						<path id="Fill-348" class="st5" d="M150.6,177.1c0-0.2,0-0.5,0-0.7c0,0.3,0,0.6,0,0.9C150.6,177.2,150.6,177.2,150.6,177.1"/>
						<path id="Fill-350" class="st5" d="M126.7,144.8c0,0.1,0.1,0.2,0.1,0.3C126.8,145,126.7,144.9,126.7,144.8"/>
						<path id="Fill-352" class="st5" d="M128.4,154.6c0,0.3-0.1,0.6-0.2,0.9C128.3,155.2,128.3,154.9,128.4,154.6"/>
						<path id="Fill-354" class="st5" d="M150.3,175c0.1,0.3,0.1,0.6,0.2,0.8C150.5,175.5,150.4,175.2,150.3,175"/>
						<path id="Fill-356" class="st5" d="M125.4,142.6c0.1,0.1,0.2,0.2,0.2,0.3C125.6,142.8,125.5,142.7,125.4,142.6"/>
						<path id="Fill-358" class="st5" d="M126.1,143.7c0.1,0.1,0.1,0.2,0.2,0.3C126.2,144,126.2,143.8,126.1,143.7"/>
						<path id="Fill-360" class="st5" d="M128.3,155.4c-0.1,0.3-0.1,0.6-0.2,0.9C128.1,156,128.2,155.7,128.3,155.4"/>
						<path id="Fill-362" class="st5" d="M124.7,141.7c0,0.1,0.1,0.1,0.1,0.2C124.8,141.8,124.7,141.7,124.7,141.7"/>
						<path id="Fill-364" class="st5" d="M150.5,175.6c0.1,0.3,0.1,0.6,0.1,0.9C150.6,176.2,150.5,175.9,150.5,175.6"/>
						<path id="Fill-366" class="st5" d="M156.7,193.9c0,0.3,0,0.5,0.1,0.8C156.8,194.4,156.7,194.2,156.7,193.9"/>
						<path id="Fill-368" class="st5" d="M153.1,186.3c0.2,0.2,0.5,0.5,0.7,0.7C153.6,186.7,153.4,186.5,153.1,186.3"/>
						<path id="Fill-370" class="st5" d="M150.5,178.5c-0.1,0.3-0.2,0.6-0.4,0.9C150.3,179.1,150.4,178.8,150.5,178.5"/>
						<path id="Fill-372" class="st5" d="M127.2,146c0.1,0.1,0.1,0.3,0.2,0.4C127.3,146.2,127.3,146.1,127.2,146"/>
						<path id="Fill-374" class="st5" d="M128.5,152.9c0,0.3,0,0.6-0.1,0.9C128.4,153.5,128.5,153.2,128.5,152.9"/>
						<path id="Fill-376" class="st5" d="M152.5,185.7C152.5,185.7,152.5,185.7,152.5,185.7c0.3,0.3,0.6,0.5,0.9,0.8
							C153.1,186.3,152.8,186,152.5,185.7"/>
						<path id="Fill-378" class="st5" d="M128.4,150.9c0,0.1,0,0.3,0,0.4C128.4,151.1,128.4,151,128.4,150.9"/>
						<path id="Fill-380" class="st5" d="M164,195.8c-0.1,0-0.2-0.1-0.2-0.1c-0.1,0-0.1,0-0.2-0.1c0,0,0,0-0.1,0
							c-0.1,0-0.1,0-0.2-0.1C163.6,195.7,163.8,195.8,164,195.8C164,195.9,164,195.8,164,195.8"/>
						<path id="Fill-382" class="st5" d="M162.2,195.3c0.1,0,0.1,0,0.2,0C162.4,195.4,162.3,195.4,162.2,195.3"/>
						<path id="Fill-384" class="st5" d="M161.2,195.1c0,0,0.1,0,0.1,0C161.2,195.1,161.2,195.1,161.2,195.1"/>
						<path id="Fill-386" class="st5" d="M150.6,177.9c0,0.3-0.1,0.6-0.2,0.9C150.5,178.4,150.5,178.2,150.6,177.9"/>
						<path id="Fill-388" class="st5" d="M128.5,152.4c0-0.1,0-0.1,0-0.2c0,0.3,0,0.6,0,0.8C128.5,152.8,128.5,152.6,128.5,152.4"/>
						<path id="Fill-390" class="st5" d="M150.1,174.3c0.1,0.3,0.2,0.5,0.3,0.8C150.3,174.8,150.2,174.6,150.1,174.3"/>
						<path id="Fill-392" class="st5" d="M119.8,137.6c0.1,0.1,0.2,0.1,0.3,0.2C120,137.7,119.9,137.6,119.8,137.6"/>
						<path id="Fill-394" class="st5" d="M127.7,147.2c0,0,0,0.1,0,0.1C127.7,147.3,127.7,147.3,127.7,147.2"/>
						<path id="Fill-396" class="st5" d="M150.6,177.2c0,0.3,0,0.6-0.1,0.9C150.5,177.7,150.6,177.4,150.6,177.2"/>
						<path id="Fill-398" class="st5" d="M159.2,194.9L159.2,194.9L159.2,194.9c-0.3,0-0.5,0-0.7,0c0.3,0,0.6,0,0.9,0
							C159.3,195,159.3,194.9,159.2,194.9"/>
						<path id="Fill-400" class="st5" d="M156.8,195.2c0-0.2,0-0.4,0-0.6c0,0.3,0,0.5,0,0.8C156.8,195.4,156.8,195.3,156.8,195.2"/>
						<path id="Fill-402" class="st5" d="M128,148.3c0,0.2,0.1,0.3,0.1,0.5C128.1,148.6,128,148.5,128,148.3"/>
						<path id="Fill-404" class="st5" d="M118.5,136.9c0.1,0.1,0.3,0.1,0.4,0.2C118.8,137.1,118.6,137,118.5,136.9"/>
						<path id="Fill-406" class="st5" d="M128.5,153.6c0,0.3-0.1,0.6-0.1,0.9C128.4,154.2,128.4,153.9,128.5,153.6"/>
						<path id="Fill-408" class="st5" d="M128.3,149.7c0,0.1,0,0.3,0.1,0.4C128.3,149.9,128.3,149.8,128.3,149.7"/>
						<path id="Fill-410" class="st5" d="M147,170.4c0.3,0.2,0.5,0.3,0.7,0.5C147.5,170.7,147.2,170.6,147,170.4"/>
						<path id="Fill-412" class="st5" d="M140.1,170c0.1,0,0.2-0.1,0.3-0.1C140.3,169.9,140.2,170,140.1,170"/>
						<path id="Fill-414" class="st5" d="M145.5,169.7c0.3,0.1,0.6,0.3,0.9,0.5C146.1,170,145.8,169.9,145.5,169.7"/>
						<path id="Fill-416" class="st5" d="M145.5,169.7C145.5,169.7,145.5,169.7,145.5,169.7C145.5,169.7,145.5,169.7,145.5,169.7
							C145.5,169.7,145.5,169.7,145.5,169.7"/>
						<path id="Fill-418" class="st5" d="M154.5,188c0.1,0.2,0.3,0.4,0.4,0.6C154.8,188.3,154.7,188.2,154.5,188"/>
						<path id="Fill-420" class="st5" d="M144.8,169.5c0.1,0,0.2,0,0.3,0.1C145,169.6,144.9,169.6,144.8,169.5"/>
						<path id="Fill-422" class="st5" d="M123.8,140.7c0.1,0.1,0.2,0.2,0.3,0.3C124,140.9,123.9,140.8,123.8,140.7"/>
						<path id="Fill-424" class="st5" d="M141.8,169.5c0.1,0,0.2,0,0.3,0C142,169.4,141.9,169.4,141.8,169.5"/>
						<path id="Fill-426" class="st5" d="M139.6,170.2C139.6,170.2,139.6,170.2,139.6,170.2C139.6,170.2,139.6,170.2,139.6,170.2"/>
						<path id="Fill-428" class="st5" d="M146.3,170.1c0.3,0.1,0.5,0.3,0.8,0.4C146.9,170.4,146.6,170.2,146.3,170.1"/>
						<path id="Fill-430" class="st5" d="M155.9,190.4c0.1,0.2,0.2,0.4,0.2,0.6C156,190.8,155.9,190.6,155.9,190.4"/>
						<path id="Fill-432" class="st5" d="M141.2,169.6C141.3,169.6,141.3,169.6,141.2,169.6C141.3,169.6,141.3,169.6,141.2,169.6"/>
						<path id="Fill-434" class="st5" d="M142.4,169.4c0.1,0,0.2,0,0.3,0C142.6,169.4,142.5,169.4,142.4,169.4"/>
						<path id="Fill-436" class="st5" d="M155.3,189.1c0.1,0.2,0.2,0.4,0.3,0.6C155.5,189.5,155.4,189.3,155.3,189.1"/>
						<path id="Fill-438" class="st5" d="M154.9,188.5c0.1,0.2,0.2,0.4,0.3,0.6C155.2,188.9,155,188.7,154.9,188.5"/>
						<path id="Fill-440" class="st5" d="M140.6,169.8c0.1,0,0.2-0.1,0.3-0.1C140.8,169.7,140.7,169.8,140.6,169.8"/>
						<path id="Fill-442" class="st5" d="M143.2,169.3L143.2,169.3c-0.1,0-0.1,0-0.2,0C143.1,169.3,143.1,169.3,143.2,169.3
							C143.2,169.3,143.2,169.3,143.2,169.3"/>
						<path id="Fill-444" class="st5" d="M155.6,189.7c0.1,0.2,0.2,0.4,0.3,0.6C155.8,190.1,155.7,189.9,155.6,189.7"/>
						<path id="Fill-446" class="st5" d="M144.2,169.4c0.1,0,0.2,0,0.3,0.1C144.4,169.5,144.3,169.4,144.2,169.4"/>
						<path id="Fill-448" class="st5" d="M143.7,169.4c0.1,0,0.2,0,0.2,0C143.8,169.4,143.7,169.4,143.7,169.4"/>
						<path id="Fill-450" class="st5" d="M160,195c0.1,0,0.2,0,0.3,0C160.2,195,160.1,195,160,195"/>
						<path id="Fill-452" class="st5" d="M153.7,186.9c0.2,0.2,0.3,0.4,0.5,0.6C154,187.2,153.8,187.1,153.7,186.9"/>
						<path id="Fill-454" class="st5" d="M121.9,139c0.1,0.1,0.2,0.2,0.3,0.3C122.1,139.2,122,139.1,121.9,139"/>
						<path id="Fill-456" class="st5" d="M128,156.9c-0.1,0.3-0.3,0.6-0.4,0.9C127.7,157.6,127.9,157.3,128,156.9"/>
						<path id="Fill-458" class="st5" d="M149.5,172.9c0.2,0.3,0.4,0.6,0.6,0.9C149.9,173.5,149.7,173.2,149.5,172.9"/>
						<path id="Fill-460" class="st5" d="M120.8,138.2c0.1,0.1,0.2,0.1,0.3,0.2C121,138.3,120.9,138.3,120.8,138.2"/>
						<path id="Fill-462" class="st5" d="M156.1,191c0.1,0.2,0.1,0.4,0.2,0.7C156.2,191.4,156.2,191.2,156.1,191"/>
						<path id="Fill-464" class="st5" d="M128.1,156.2c-0.1,0.3-0.2,0.6-0.3,0.9C127.9,156.8,128,156.5,128.1,156.2"/>
						<path id="Fill-466" class="st5" d="M122.9,139.8c0,0,0.1,0.1,0.1,0.1C123,139.9,123,139.8,122.9,139.8"/>
						<path id="Fill-468" class="st5" d="M149.8,173.6c0.2,0.3,0.3,0.6,0.4,0.9C150.1,174.2,150,173.9,149.8,173.6"/>
						<path id="Fill-470" class="st5" d="M156.6,193c0.1,0.3,0.1,0.6,0.2,0.9C156.7,193.6,156.7,193.3,156.6,193"/>
						<path id="Fill-472" class="st5" d="M148.1,171.3c0.3,0.3,0.6,0.5,0.8,0.8C148.6,171.8,148.4,171.5,148.1,171.3"/>
						<path id="Fill-474" class="st5" d="M156.3,191.6c0.1,0.2,0.1,0.5,0.2,0.7C156.4,192.1,156.4,191.9,156.3,191.6"/>
						<path id="Fill-476" class="st5" d="M147.5,170.8c0.3,0.2,0.6,0.5,0.9,0.8C148.1,171.3,147.8,171.1,147.5,170.8"/>
						<path id="Fill-478" class="st5" d="M154.1,187.4c0.1,0.2,0.3,0.4,0.4,0.6C154.4,187.8,154.3,187.6,154.1,187.4"/>
						<path id="Fill-480" class="st5" d="M148.7,171.8c0.2,0.2,0.4,0.4,0.5,0.7C149,172.3,148.9,172.1,148.7,171.8"/>
						<path id="Fill-482" class="st5" d="M139,170.6c0.1,0,0.1-0.1,0.2-0.1C139.2,170.5,139.1,170.6,139,170.6"/>
						<path id="Fill-484" class="st5" d="M138.7,170.9C138.7,170.9,138.7,170.9,138.7,170.9C138.7,170.9,138.7,170.9,138.7,170.9
							c-0.2,0.1-0.2,0.2-0.3,0.2c0.1-0.1,0.3-0.2,0.4-0.3C138.8,170.8,138.8,170.8,138.7,170.9"/>
						<path id="Fill-486" class="st5" d="M156.5,192.3c0.1,0.3,0.1,0.5,0.2,0.8C156.6,192.8,156.5,192.6,156.5,192.3"/>
						<path id="Fill-488" class="st5" d="M149.1,172.4c0.2,0.2,0.3,0.5,0.5,0.7C149.4,172.8,149.3,172.6,149.1,172.4"/>
						<path id="Fill-490" class="st5" d="M162.4,195.4C162.4,195.4,162.4,195.4,162.4,195.4c-0.1,0-0.1,0-0.2,0c0,0,0,0,0,0
							C162.3,195.3,162.4,195.4,162.4,195.4"/>
						<path id="Fill-492" class="st5" d="M164.1,195.9c-0.2-0.1-0.5-0.1-0.7-0.2C163.6,195.7,163.8,195.8,164.1,195.9"/>
						<path id="Fill-494" class="st5" d="M160.3,195L160.3,195c-0.1,0-0.2,0-0.3,0h0C160.1,195,160.2,195,160.3,195"/>
						<path id="Fill-496" class="st5" d="M161.3,195.1C161.3,195.1,161.3,195.1,161.3,195.1c0,0-0.1,0-0.1,0h0
							C161.2,195.1,161.2,195.1,161.3,195.1"/>
						<path id="Fill-498" class="st5" d="M119.6,189.7c0,0.3,0,0.5,0,0.8C119.6,190.2,119.6,189.9,119.6,189.7"/>
						<path id="Fill-500" class="st5" d="M116.8,201.5c0,0.1,0.1,0.1,0.1,0.2C116.8,201.6,116.8,201.5,116.8,201.5"/>
						<path id="Fill-502" class="st5" d="M117.2,202.3c0,0.1,0.1,0.2,0.1,0.3C117.3,202.5,117.2,202.4,117.2,202.3"/>
						<path id="Fill-504" class="st5" d="M115.7,199.9C115.7,199.9,115.8,199.9,115.7,199.9C115.8,199.9,115.7,199.9,115.7,199.9"/>
						<path id="Fill-506" class="st5" d="M116.2,200.6c0.1,0.1,0.1,0.2,0.2,0.3C116.4,200.8,116.3,200.7,116.2,200.6"/>
						<path id="Fill-508" class="st5" d="M118.1,205c0,0.1,0,0.2,0.1,0.3C118.1,205.2,118.1,205.1,118.1,205"/>
						<path id="Fill-510" class="st5" d="M117.6,203.2c0,0.1,0.1,0.2,0.1,0.2C117.6,203.4,117.6,203.3,117.6,203.2"/>
						<path id="Fill-512" class="st5" d="M117.8,204.1c0,0.1,0.1,0.2,0.1,0.3C117.9,204.3,117.8,204.2,117.8,204.1"/>
						<path id="Fill-514" class="st5" d="M119.3,192.5c-0.1,0.2-0.1,0.4-0.2,0.6C119.2,192.9,119.3,192.7,119.3,192.5"/>
						<path id="Fill-516" class="st5" d="M119.5,191.8c0,0.2-0.1,0.4-0.1,0.6C119.4,192.2,119.5,192,119.5,191.8"/>
						<path id="Fill-518" class="st5" d="M119.6,190.4c0,0.2,0,0.4,0,0.6C119.6,190.9,119.6,190.6,119.6,190.4"/>
						<path id="Fill-520" class="st5" d="M115,199.1c0.1,0.1,0.2,0.2,0.3,0.3C115.2,199.2,115.1,199.1,115,199.1"/>
						<path id="Fill-522" class="st5" d="M119.6,191.1c0,0.2-0.1,0.4-0.1,0.6C119.5,191.6,119.6,191.3,119.6,191.1"/>
						<path id="Fill-524" class="st5" d="M118.4,194.5c-0.1,0.1-0.2,0.3-0.3,0.4C118.2,194.8,118.3,194.6,118.4,194.5"/>
						<path id="Fill-526" class="st5" d="M119.1,193.2c-0.1,0.2-0.2,0.4-0.2,0.5C119,193.6,119,193.4,119.1,193.2"/>
						<path id="Fill-528" class="st5" d="M118.8,193.9c-0.1,0.2-0.2,0.3-0.3,0.5C118.6,194.2,118.7,194,118.8,193.9"/>
						<path id="Fill-530" class="st5" d="M109.6,174.9c0,0.1,0.1,0.2,0.1,0.3C109.7,175.1,109.7,175,109.6,174.9"/>
						<path id="Fill-532" class="st5" d="M110.3,155.9c0,0.2,0,0.5,0,0.7C110.2,156.3,110.2,156.1,110.3,155.9"/>
						<path id="Fill-534" class="st5" d="M110.2,156.7c0,0.2-0.1,0.5-0.1,0.7C110.2,157.1,110.2,156.9,110.2,156.7"/>
						<path id="Fill-536" class="st5" d="M110.6,178.1c0,0.1,0,0.2,0,0.4C110.6,178.3,110.6,178.2,110.6,178.1"/>
						<path id="Fill-538" class="st5" d="M109.3,149.4c0.1,0.3,0.2,0.5,0.3,0.8C109.5,149.9,109.4,149.6,109.3,149.4"/>
						<path id="Fill-540" class="st5" d="M110.4,177.2c0,0.1,0.1,0.2,0.1,0.4C110.5,177.4,110.4,177.3,110.4,177.2"/>
						<path id="Fill-542" class="st5" d="M110,158.2c0,0.2-0.1,0.4-0.1,0.7C109.9,158.7,110,158.5,110,158.2"/>
						<path id="Fill-544" class="st5" d="M110.1,157.5c0,0.2-0.1,0.5-0.1,0.7C110.1,157.9,110.1,157.7,110.1,157.5"/>
						<path id="Fill-546" class="st5" d="M110.2,154.3c0,0.3,0,0.6,0,0.9C110.3,154.9,110.3,154.6,110.2,154.3"/>
						<path id="Fill-548" class="st5" d="M109.6,150.2c0.1,0.3,0.2,0.5,0.2,0.8C109.7,150.7,109.6,150.4,109.6,150.2"/>
						<path id="Fill-550" class="st5" d="M110.7,180.3c0,0.2,0,0.4,0,0.7C110.7,180.7,110.7,180.5,110.7,180.3"/>
						<path id="Fill-552" class="st5" d="M109.8,151c0.1,0.3,0.1,0.5,0.2,0.8C109.9,151.5,109.8,151.3,109.8,151"/>
						<path id="Fill-554" class="st5" d="M110,151.8c0.1,0.3,0.1,0.5,0.1,0.8C110.1,152.3,110,152.1,110,151.8"/>
						<path id="Fill-556" class="st5" d="M110.2,176.4c0,0.2,0.1,0.3,0.1,0.5C110.3,176.7,110.3,176.6,110.2,176.4"/>
						<path id="Fill-558" class="st5" d="M110.7,179.6c0,0.1,0,0.2,0,0.4C110.7,179.8,110.7,179.7,110.7,179.6"/>
						<path id="Fill-560" class="st5" d="M110.2,153.4c0,0.3,0,0.6,0.1,0.9C110.2,154,110.2,153.7,110.2,153.4"/>
						<path id="Fill-562" class="st5" d="M110.7,178.8c0,0.1,0,0.3,0,0.4C110.7,179.1,110.7,179,110.7,178.8"/>
						<path id="Fill-564" class="st5" d="M110.1,152.6c0,0.3,0.1,0.6,0.1,0.8C110.2,153.2,110.1,152.9,110.1,152.6"/>
						<path id="Fill-566" class="st5" d="M110.3,155.1c0,0.2,0,0.5,0,0.7C110.3,155.6,110.3,155.3,110.3,155.1"/>
						<path id="Fill-568" class="st5" d="M107.2,164.9c-0.1,0.2-0.2,0.3-0.4,0.5C107,165.2,107.1,165.1,107.2,164.9"/>
						<path id="Fill-570" class="st5" d="M108.9,173.5c0.1,0.1,0.2,0.3,0.2,0.4C109.1,173.7,109,173.6,108.9,173.5"/>
						<path id="Fill-572" class="st5" d="M107.7,164.2c-0.1,0.2-0.2,0.4-0.4,0.5C107.5,164.6,107.6,164.4,107.7,164.2"/>
						<path id="Fill-574" class="st5" d="M106.7,165.6c-0.1,0.1-0.2,0.3-0.3,0.4C106.4,165.9,106.5,165.7,106.7,165.6"/>
						<path id="Fill-576" class="st5" d="M108.4,172.7c0,0.1,0.1,0.1,0.1,0.2C108.5,172.9,108.5,172.8,108.4,172.7"/>
						<path id="Fill-578" class="st5" d="M107.4,171.4c0.1,0.1,0.2,0.2,0.3,0.3C107.6,171.7,107.5,171.6,107.4,171.4"/>
						<path id="Fill-580" class="st5" d="M108.1,163.5c-0.1,0.2-0.2,0.4-0.3,0.6C107.9,163.9,108,163.7,108.1,163.5"/>
						<path id="Fill-582" class="st5" d="M112.8,182.8c-0.8-0.1-1.6,0-2.4,0.4c0.6-0.3,1.2-0.4,1.8-0.4
							C112.4,182.7,112.6,182.8,112.8,182.8"/>
						<path id="Fill-584" class="st5" d="M109.4,160.5c-0.1,0.2-0.2,0.4-0.2,0.6C109.3,161,109.4,160.8,109.4,160.5"/>
						<path id="Fill-586" class="st5" d="M110,175.7c0,0.1,0.1,0.3,0.1,0.4C110.1,176,110,175.8,110,175.7"/>
						<path id="Fill-588" class="st5" d="M109.9,159c-0.1,0.2-0.1,0.4-0.2,0.7C109.7,159.5,109.8,159.2,109.9,159"/>
						<path id="Fill-590" class="st5" d="M109.7,159.8c-0.1,0.2-0.1,0.4-0.2,0.7C109.5,160.2,109.6,160,109.7,159.8"/>
						<path id="Fill-592" class="st5" d="M108.5,162.8c-0.1,0.2-0.2,0.4-0.3,0.6C108.3,163.2,108.4,163,108.5,162.8"/>
						<path id="Fill-594" class="st5" d="M109.2,161.3c-0.1,0.2-0.2,0.4-0.3,0.6C109,161.7,109.1,161.5,109.2,161.3"/>
						<path id="Fill-596" class="st5" d="M109.3,174.1c0.1,0.1,0.2,0.3,0.2,0.4C109.4,174.4,109.4,174.3,109.3,174.1"/>
						<path id="Fill-598" class="st5" d="M108.9,162c-0.1,0.2-0.2,0.4-0.3,0.6C108.7,162.4,108.8,162.2,108.9,162"/>
						<path id="Fill-600" class="st5" d="M117.9,210.7c0,0.1,0,0.1-0.1,0.2C117.8,210.8,117.8,210.7,117.9,210.7"/>
						<path id="Fill-602" class="st5" d="M118.1,209.6c0,0.1,0,0.2-0.1,0.4C118.1,209.9,118.1,209.8,118.1,209.6"/>
						<path id="Fill-604" class="st5" d="M117.2,184.7c0.3,0.3,0.6,0.6,0.9,0.9C117.8,185.3,117.5,185,117.2,184.7"/>
						<path id="Fill-606" class="st5" d="M107.9,172c0.1,0.1,0.2,0.2,0.3,0.4C108.1,172.3,108,172.2,107.9,172"/>
						<path id="Fill-608" class="st5" d="M117.9,185.5c0.2,0.2,0.4,0.5,0.6,0.7C118.3,186,118.1,185.7,117.9,185.5"/>
						<path id="Fill-610" class="st5" d="M116.7,184.3c0.3,0.2,0.6,0.5,0.9,0.8C117.3,184.8,117,184.6,116.7,184.3"/>
						<path id="Fill-612" class="st5" d="M116.1,183.9c0.3,0.2,0.6,0.4,0.9,0.7C116.7,184.3,116.4,184.1,116.1,183.9"/>
						<path id="Fill-614" class="st5" d="M118.2,208.8c0,0.1,0,0.2,0,0.3C118.2,209,118.2,208.9,118.2,208.8"/>
						<path id="Fill-616" class="st5" d="M119.5,189c0,0.2,0.1,0.5,0.1,0.7C119.6,189.4,119.6,189.2,119.5,189"/>
						<path id="Fill-618" class="st5" d="M118.8,186.8c0.1,0.2,0.2,0.5,0.3,0.7C119,187.3,118.9,187.1,118.8,186.8"/>
						<path id="Fill-620" class="st5" d="M118.2,205.9c0,0.1,0,0.2,0,0.3C118.2,206.1,118.2,206,118.2,205.9"/>
						<path id="Fill-622" class="st5" d="M119.3,188.2c0.1,0.2,0.1,0.5,0.2,0.7C119.5,188.7,119.4,188.5,119.3,188.2"/>
						<path id="Fill-624" class="st5" d="M119.1,187.5c0.1,0.2,0.2,0.5,0.3,0.7C119.3,188,119.2,187.8,119.1,187.5"/>
						<path id="Fill-626" class="st5" d="M118.3,207.8c0,0.1,0,0.2,0,0.4C118.3,208,118.3,207.9,118.3,207.8"/>
						<path id="Fill-628" class="st5" d="M118.4,186.2c0.1,0.2,0.3,0.5,0.4,0.7C118.7,186.6,118.6,186.4,118.4,186.2"/>
						<path id="Fill-630" class="st5" d="M115.5,183.5c0.3,0.2,0.6,0.4,0.9,0.6C116.1,183.9,115.8,183.7,115.5,183.5"/>
						<path id="Fill-632" class="st5" d="M118.3,206.9c0,0.1,0,0.2,0,0.4C118.3,207.1,118.3,207,118.3,206.9"/>
						<path id="Fill-634" class="st5" d="M106.3,144.2c0.2,0.2,0.4,0.5,0.6,0.7C106.7,144.7,106.5,144.4,106.3,144.2"/>
						<path id="Fill-636" class="st5" d="M107.4,145.6c0.2,0.2,0.3,0.5,0.5,0.7C107.7,146.1,107.6,145.8,107.4,145.6"/>
						<path id="Fill-638" class="st5" d="M108.3,147.1c0.1,0.2,0.3,0.5,0.4,0.7C108.5,147.6,108.4,147.3,108.3,147.1"/>
						<path id="Fill-640" class="st5" d="M106.9,144.9c0.2,0.2,0.4,0.5,0.5,0.7C107.3,145.4,107.1,145.1,106.9,144.9"/>
						<path id="Fill-642" class="st5" d="M117.6,211.5c0,0.1-0.1,0.3-0.1,0.4C117.5,211.7,117.6,211.6,117.6,211.5"/>
						<path id="Fill-644" class="st5" d="M107.9,146.3c0.1,0.2,0.3,0.5,0.4,0.7C108.2,146.8,108,146.6,107.9,146.3"/>
						<path id="Fill-646" class="st5" d="M109,148.6c0.1,0.3,0.2,0.5,0.3,0.8C109.2,149.1,109.1,148.9,109,148.6"/>
						<path id="Fill-648" class="st5" d="M108.7,147.8c0.1,0.3,0.2,0.5,0.3,0.8C108.9,148.3,108.8,148.1,108.7,147.8"/>
						<path id="Fill-650" class="st5" d="M110.6,181.9c0,0.2-0.1,0.4-0.1,0.6C110.5,182.3,110.6,182.1,110.6,181.9"/>
						<path id="Fill-652" class="st5" d="M112.9,182.8c0.4,0.1,0.8,0.2,1.2,0.4C113.7,183,113.3,182.9,112.9,182.8"/>
						<path id="Fill-654" class="st5" d="M104.7,167.6c0,0-0.1,0.1-0.1,0.1c0,0-0.1,0.1-0.1,0.1
							C104.5,167.7,104.6,167.7,104.7,167.6"/>
						<path id="Fill-656" class="st5" d="M114.8,183.2c0.3,0.1,0.6,0.3,0.9,0.5C115.4,183.5,115.1,183.4,114.8,183.2"/>
						<path id="Fill-658" class="st5" d="M104.2,168.1c-0.1,0.1-0.3,0.2-0.4,0.4C104,168.3,104.1,168.2,104.2,168.1"/>
						<path id="Fill-660" class="st5" d="M104.9,142.7c0.3,0.3,0.6,0.6,0.9,0.9C105.5,143.3,105.2,142.9,104.9,142.7"/>
						<path id="Fill-662" class="st5" d="M114.2,183c0.3,0.1,0.6,0.2,0.9,0.4C114.8,183.3,114.5,183.1,114.2,183"/>
						<path id="Fill-664" class="st5" d="M110.7,181.1c0,0.2,0,0.4-0.1,0.6C110.6,181.5,110.7,181.3,110.7,181.1"/>
						<path id="Fill-666" class="st5" d="M105.7,143.5c0.2,0.3,0.5,0.5,0.7,0.8C106.2,144,106,143.8,105.7,143.5"/>
						<path id="Fill-668" class="st5" d="M156.3,191.7C156.3,191.7,156.3,191.7,156.3,191.7c-0.1-0.3-0.1-0.5-0.2-0.7c0,0,0,0,0,0
							C156.2,191.2,156.2,191.5,156.3,191.7"/>
						<path id="Fill-670" class="st5" d="M156.7,193.2c0-0.1,0-0.1,0-0.2c0-0.2-0.1-0.5-0.2-0.7c0,0,0,0,0,0
							C156.5,192.6,156.6,192.9,156.7,193.2"/>
						<path id="Fill-672" class="st5" d="M155.6,189.7L155.6,189.7c-0.1-0.2-0.2-0.4-0.3-0.6c0,0,0,0,0,0
							C155.4,189.3,155.5,189.5,155.6,189.7"/>
						<path id="Fill-674" class="st5" d="M155.3,189.1L155.3,189.1c-0.1-0.2-0.2-0.4-0.4-0.6c0,0,0,0,0,0
							C155,188.7,155.2,188.9,155.3,189.1"/>
						<path id="Fill-676" class="st5" d="M156.8,193.9C156.8,193.9,156.8,193.9,156.8,193.9c0-0.3-0.1-0.6-0.2-0.9c0,0,0,0,0,0
							C156.7,193.3,156.7,193.6,156.8,193.9"/>
						<path id="Fill-678" class="st5" d="M156.1,191C156.1,191,156.1,191,156.1,191c-0.1-0.2-0.2-0.4-0.3-0.7c0,0,0,0,0,0
							C155.9,190.6,156,190.8,156.1,191"/>
						<path id="Fill-680" class="st5" d="M155.9,190.4C155.9,190.4,155.9,190.4,155.9,190.4c-0.1-0.2-0.2-0.4-0.3-0.6c0,0,0,0,0,0
							C155.7,189.9,155.8,190.2,155.9,190.4"/>
						<path id="Fill-682" class="st5" d="M156.5,192.4C156.5,192.4,156.5,192.4,156.5,192.4c-0.1-0.3-0.1-0.5-0.2-0.8c0,0,0,0,0,0
							C156.4,191.9,156.4,192.2,156.5,192.4"/>
						<path id="Fill-684" class="st5" d="M156.8,194.6C156.8,194.6,156.8,194.6,156.8,194.6c0-0.2,0-0.4-0.1-0.7c0-0.1,0-0.2,0-0.2
							C156.7,194,156.8,194.3,156.8,194.6"/>
						<path id="Fill-686" class="st5" d="M156.8,195.5C156.8,195.4,156.8,195.4,156.8,195.5c0-0.3,0-0.5,0-0.7c0-0.1,0-0.1,0-0.2
							C156.8,194.9,156.8,195.2,156.8,195.5"/>
						<path id="Fill-688" class="st5" d="M154.9,188.5C154.9,188.5,154.9,188.5,154.9,188.5c-0.1-0.2-0.3-0.4-0.4-0.6c0,0,0,0,0,0
							C154.7,188.2,154.8,188.3,154.9,188.5"/>
						<path id="Fill-690" class="st5" d="M154.6,188C154.6,188,154.6,188,154.6,188c-0.1-0.2-0.3-0.4-0.4-0.6l0,0
							C154.3,187.6,154.4,187.8,154.6,188"/>
						<path id="Fill-692" class="st5" d="M154.2,187.4C154.2,187.4,154.2,187.4,154.2,187.4c-0.2-0.2-0.3-0.4-0.5-0.6l0,0
							C153.8,187.1,154,187.2,154.2,187.4"/>
						<path id="Fill-694" class="st2" d="M163.4,195.6c-0.3-0.1-0.7-0.2-1-0.3c-0.5-0.1-0.8-0.2-1.1-0.2c-0.4-0.1-0.8-0.1-1.1-0.1
							c-0.5,0-0.8-0.1-1.2-0.1c-0.2,0-0.3,0-0.5,0c-0.6,0-1.2,0.1-1.7,0.1c0,0,0-0.3,0-0.5c0-0.4,0-0.6-0.1-0.8
							c0-0.3-0.1-0.5-0.1-0.8c-0.1-0.3-0.1-0.5-0.1-0.7c-0.1-0.4-0.1-0.5-0.2-0.7c-0.1-0.4-0.2-0.5-0.2-0.6
							c-0.1-0.4-0.2-0.5-0.2-0.6c-0.2-0.4-0.2-0.5-0.3-0.6c-0.2-0.4-0.3-0.5-0.3-0.6c-0.1-0.1-0.1-0.2-0.2-0.3
							c-0.1-0.1-0.1-0.2-0.2-0.3c-0.1-0.1-0.1-0.2-0.2-0.3c-0.1-0.1-0.1-0.2-0.2-0.3c-0.1-0.1-0.1-0.2-0.2-0.3
							c-0.1-0.1-0.2-0.2-0.2-0.3c-0.1-0.1-0.1-0.2-0.2-0.2c-0.1-0.1-0.2-0.2-0.3-0.3c-0.3-0.3-0.4-0.5-0.6-0.6
							c-0.3-0.3-0.4-0.4-0.6-0.6c-0.2-0.2-0.4-0.3-0.6-0.5c-1-0.8-2.2-1.4-3.5-1.8c-0.4-0.1-0.8-0.3-1.3-0.4c1.3-0.9,2.4-2.2,3-3.8
							c0.1-0.2,0.1-0.5,0.2-0.7c0.1-0.4,0.1-0.5,0.1-0.7c0-0.4,0.1-0.5,0.1-0.7c0-0.4,0-0.6,0-0.8c0-0.3,0-0.5-0.1-0.8
							c-0.1-0.4-0.1-0.5-0.1-0.6c-0.1-0.4-0.2-0.5-0.2-0.6c-0.1-0.4-0.2-0.6-0.3-0.7c-0.1-0.3-0.2-0.5-0.4-0.7
							c-0.2-0.3-0.3-0.4-0.4-0.5c-0.2-0.3-0.3-0.4-0.4-0.5c-0.3-0.3-0.4-0.5-0.6-0.6c-0.2-0.2-0.4-0.3-0.6-0.4
							c-0.3-0.2-0.4-0.3-0.6-0.4c-0.3-0.2-0.5-0.3-0.6-0.3c-0.4-0.2-0.6-0.3-0.8-0.4c-0.2-0.1-0.4-0.1-0.6-0.2
							c-0.3-0.1-0.4-0.1-0.6-0.1c-0.3-0.1-0.5-0.1-0.6-0.1c-0.3,0-0.5,0-0.7,0c-0.3,0-0.4,0-0.6,0c-0.3,0-0.4,0-0.6,0.1
							c-0.3,0.1-0.5,0.1-0.7,0.1c-0.2,0.1-0.4,0.1-0.5,0.2c-0.3,0.1-0.4,0.1-0.5,0.2c-0.3,0.1-0.5,0.2-0.6,0.3
							c-0.2,0.1-0.3,0.2-0.5,0.3c-0.2,0.1-0.3,0.2-0.5,0.3c-0.1,0.1-0.2,0.1-0.2,0.2c-0.7-4.3-3.7-8.1-8.1-9.6
							c-0.9-0.3-1.7-0.5-2.6-0.6l-0.9-1.1c0.3-0.6,0.6-1.3,0.8-1.9c0.1-0.3,0.2-0.5,0.2-0.8c0.1-0.4,0.2-0.6,0.2-0.8
							c0.1-0.4,0.1-0.6,0.2-0.8c0.1-0.4,0.1-0.6,0.1-0.8c0.1-0.5,0.1-0.7,0.1-1c0-0.3,0-0.5,0-0.8c0-0.4,0-0.5,0-0.7
							c0-0.4,0-0.7,0-1.1c0-0.5-0.1-0.9-0.1-1.2c-0.1-0.6-0.2-0.9-0.2-1.3c-0.1-0.6-0.2-0.9-0.3-1.3c-0.1-0.4-0.3-0.8-0.4-1.1
							c-0.2-0.6-0.4-0.9-0.5-1.2c-0.2-0.4-0.4-0.7-0.5-1c-0.3-0.5-0.5-0.8-0.7-1.1c-0.3-0.5-0.5-0.7-0.8-1c-0.3-0.4-0.6-0.7-0.8-0.9
							c-0.4-0.5-0.7-0.7-1-1c-0.3-0.3-0.6-0.5-0.9-0.8c-0.5-0.4-0.8-0.6-1.1-0.8c-0.5-0.3-0.8-0.5-1.1-0.7c-0.5-0.3-0.8-0.4-1.2-0.6
							c-0.1,0-0.2-0.1-0.2-0.1c-0.4-0.2-0.7-0.3-1.1-0.5c1.5-6.7,4.6-16,10.7-25.2l-6.4-5.4c-1.1,1.6-9.4,13.8-15.9,30.6
							c-0.7,1.7-1.3,3.5-1.9,5.3c0.2,0.1,0.3,0.3,0.5,0.4c0.2,0.2,0.4,0.3,0.5,0.5c0.2,0.2,0.4,0.4,0.6,0.6c0.1,0.1,0.1,0.1,0.2,0.2
							c0.1,0.1,0.3,0.3,0.4,0.4c0.1,0.1,0.2,0.2,0.2,0.3c0.1,0.1,0.2,0.3,0.3,0.4c0.1,0.1,0.1,0.2,0.2,0.3c0.1,0.1,0.2,0.3,0.3,0.4
							c0.1,0.1,0.1,0.2,0.2,0.3c0.1,0.1,0.2,0.3,0.3,0.4c0.1,0.1,0.1,0.2,0.2,0.3c0.1,0.1,0.2,0.3,0.2,0.4c0.1,0.1,0.1,0.2,0.2,0.3
							c0.1,0.1,0.1,0.3,0.2,0.4c0.1,0.1,0.1,0.2,0.2,0.4c0.1,0.1,0.1,0.3,0.2,0.4c0.1,0.1,0.1,0.2,0.2,0.4c0.1,0.1,0.1,0.3,0.2,0.4
							c0,0.1,0.1,0.2,0.1,0.4c0,0.1,0.1,0.3,0.1,0.4c0,0.1,0.1,0.3,0.1,0.4c0,0.1,0.1,0.3,0.1,0.4c0,0.1,0.1,0.3,0.1,0.4
							c0,0.1,0.1,0.3,0.1,0.4c0,0.1,0.1,0.3,0.1,0.4c0,0.1,0.1,0.3,0.1,0.4c0,0.1,0,0.3,0.1,0.4c0,0.2,0,0.3,0.1,0.5
							c0,0.1,0,0.2,0,0.4c0,0.2,0,0.3,0,0.5c0,0.5,0,0.7,0,0.9c0,0.5,0,0.6,0,0.7c0,0.1,0,0.3,0,0.4c0,0.1,0,0.3,0,0.4
							c0,0.1,0,0.3,0,0.4c0,0.1,0,0.2,0,0.4c0,0.1,0,0.3-0.1,0.4c0,0.1,0,0.2-0.1,0.4c0,0.1,0,0.3-0.1,0.4c0,0.1,0,0.2-0.1,0.4
							c0,0.1-0.1,0.3-0.1,0.4c0,0.1-0.1,0.2-0.1,0.4c0,0.1-0.1,0.3-0.1,0.4c0,0.1-0.1,0.2-0.1,0.4c0,0.1-0.1,0.3-0.1,0.4
							c0,0.1-0.1,0.2-0.1,0.3c-0.1,0.1-0.1,0.3-0.2,0.4c0,0.1-0.1,0.2-0.1,0.3c-0.1,0.1-0.1,0.3-0.2,0.4c-0.1,0.1-0.1,0.2-0.2,0.3
							c-0.1,0.1-0.1,0.3-0.2,0.4c-0.1,0.1-0.1,0.2-0.2,0.3c-0.1,0.1-0.2,0.3-0.2,0.4c-0.1,0.1-0.1,0.2-0.2,0.3
							c-0.1,0.1-0.2,0.3-0.3,0.4c-0.1,0.1-0.1,0.2-0.2,0.3c-0.1,0.1-0.2,0.3-0.3,0.4c-0.1,0.1-0.1,0.2-0.2,0.3
							c-0.1,0.1-0.2,0.3-0.3,0.4c-0.1,0.1-0.1,0.1-0.2,0.2c-0.2,0.2-0.4,0.4-0.6,0.6c-0.2,0.2-0.4,0.4-0.6,0.6
							c-0.1,0.1-0.1,0.1-0.2,0.2c-0.1,0.1-0.2,0.2-0.4,0.3c-0.1,0.1-0.2,0.1-0.2,0.2c-0.1,0.1-0.2,0.2-0.3,0.3
							c-0.1,0.1-0.2,0.1-0.3,0.2c-0.2,0.2-0.2,0.2-0.2,0.2c-0.1,0.1-0.2,0.1-0.3,0.2c1.3,0.5,2.4,1.3,3.5,2.3
							c0.2,0.2,0.4,0.4,0.6,0.6c0.3,0.3,0.4,0.5,0.5,0.6c0.3,0.4,0.4,0.5,0.5,0.7c0.2,0.3,0.3,0.5,0.5,0.7c0.2,0.4,0.3,0.5,0.4,0.7
							c0.2,0.4,0.3,0.6,0.4,0.7c0.2,0.4,0.3,0.6,0.3,0.8c0.1,0.4,0.2,0.5,0.2,0.7c0.1,0.4,0.2,0.6,0.2,0.8c0.1,0.4,0.1,0.7,0.2,0.9
							c0,0.4,0.1,0.6,0.1,0.7c0,0.4,0,0.6,0,0.8c0,0.4,0,0.5,0,0.6c0,0.5,0,0.6-0.1,0.8c-0.1,0.5-0.1,0.7-0.1,0.8
							c-0.1,0.6-0.2,0.8-0.2,1.1c0.8-0.2,1.6-0.3,2.4-0.2c0.5,0.1,0.9,0.1,1.3,0.2c0.3,0.1,0.5,0.2,0.7,0.2c0.2,0.1,0.4,0.2,0.6,0.2
							c0.3,0.2,0.5,0.3,0.7,0.4c0.2,0.1,0.4,0.2,0.5,0.4c0.3,0.2,0.5,0.4,0.6,0.5c0.2,0.2,0.4,0.4,0.5,0.6c0.3,0.3,0.4,0.5,0.5,0.6
							c0.1,0.1,0.1,0.2,0.2,0.3c0.1,0.1,0.2,0.2,0.2,0.4c0.1,0.1,0.1,0.2,0.2,0.3c0.1,0.1,0.1,0.2,0.2,0.4c0,0.1,0.1,0.2,0.1,0.3
							c0,0.1,0.1,0.3,0.1,0.4c0.1,0.5,0.2,0.6,0.2,0.7c0.1,0.5,0.1,0.6,0.1,0.7c0,0.5,0,0.6,0,0.7c0,0.5,0,0.6,0,0.7
							c0,0.1,0,0.2,0,0.4c-0.1,0.5-0.1,0.6-0.1,0.7c-0.1,0.4-0.1,0.6-0.2,0.7c-0.1,0.4-0.2,0.6-0.3,0.7c-0.2,0.4-0.3,0.5-0.3,0.7
							c-0.2,0.4-0.3,0.5-0.4,0.7c-0.3,0.4-0.5,0.6-0.6,0.8c-1.2,1.3-2.7,2-4.3,2.3c0.3,0.3,0.7,0.5,1,0.8c0.2,0.2,0.4,0.4,0.6,0.6
							c0.3,0.4,0.5,0.6,0.7,0.8c0.2,0.3,0.4,0.5,0.5,0.7c0.3,0.4,0.4,0.6,0.5,0.9c0.2,0.3,0.3,0.5,0.4,0.8c0.2,0.4,0.3,0.7,0.4,0.9
							c0.1,0.4,0.2,0.6,0.3,0.8c0.1,0.4,0.2,0.7,0.2,1c0.1,0.4,0.1,0.6,0.1,0.9c0.1,0.4,0.1,0.7,0.1,1c0,0.3,0,0.4,0,0.5
							c0,0.4,0,0.5,0,0.6c0,0.3,0,0.6-0.1,0.8c-0.1,0.4-0.1,0.6-0.1,0.9c-0.1,0.5-0.2,0.7-0.2,1c-0.1,0.3-0.2,0.6-0.3,0.8
							c-0.2,0.5-0.3,0.7-0.4,1c2.2,0.6,4.3,1.8,6.1,3.4c0.2,0.2,0.4,0.3,0.5,0.5c0.3,0.3,0.4,0.4,0.5,0.5c0.1,0.1,0.1,0.1,0.2,0.2
							c0.1,0.1,0.2,0.2,0.3,0.3c0.1,0.1,0.1,0.2,0.2,0.2c0.1,0.1,0.2,0.2,0.3,0.3c0.1,0.1,0.1,0.2,0.2,0.3c0.1,0.1,0.2,0.2,0.2,0.3
							c0.1,0.1,0.1,0.2,0.2,0.3c0.1,0.1,0.1,0.2,0.2,0.3c0.1,0.1,0.1,0.2,0.2,0.3c0.1,0.1,0.1,0.2,0.2,0.4c0.2,0.4,0.3,0.5,0.3,0.6
							c0.2,0.4,0.2,0.5,0.3,0.7c0.2,0.4,0.3,0.6,0.3,0.9c0.1,0.3,0.2,0.5,0.2,0.7c0.1,0.4,0.1,0.5,0.2,0.7c0.1,0.4,0.1,0.6,0.1,0.7
							c0.1,0.4,0.1,0.6,0.1,0.7c0.1,0.4,0.1,0.6,0.1,0.7c0,0.4,0,0.6,0.1,0.7c0,0.4,0,0.6,0,0.7c0,0.4,0,0.6,0,0.7
							c0,0.4,0,0.6-0.1,0.7c0,0.4-0.1,0.6-0.1,0.8c17-3,33.7-7.6,47-17.5c-0.3-6-5.2-13.9-11.3-15.9
							C163.6,195.7,163.5,195.7,163.4,195.6z"/>
						<path id="Fill-696" class="st5" d="M159.4,195c-0.3,0-0.6,0-0.9,0C158.8,194.9,159.1,195,159.4,195"/>
						<path id="Fill-698" class="st2" d="M104.1,168.3c-0.2,0.2-0.5,0.4-0.7,0.6C103.6,168.7,103.8,168.5,104.1,168.3L104.1,168.3z"
							/>
						<path id="Fill-700" class="st2" d="M103.8,168.4C103.8,168.4,103.8,168.4,103.8,168.4c0.1-0.1,0.3-0.2,0.5-0.4c0,0,0,0,0,0
							C104.1,168.2,104,168.3,103.8,168.4"/>
						<path id="Fill-702" class="st2" d="M105.1,167.3C105.1,167.3,105,167.4,105.1,167.3c0.1,0,0.2-0.2,0.3-0.3c0,0,0,0,0,0
							C105.3,167.1,105.2,167.2,105.1,167.3"/>
						<path id="Fill-704" class="st2" d="M104.8,167.6c-0.1,0.1-0.2,0.1-0.3,0.2c0,0-0.1,0.1-0.1,0.1c0.2-0.1,0.3-0.3,0.5-0.4
							C104.9,167.5,104.9,167.5,104.8,167.6C104.8,167.6,104.8,167.6,104.8,167.6"/>
						<path id="Fill-706" class="st5" d="M104.1,168.2c0.2-0.1,0.3-0.3,0.4-0.5c0,0,0.1-0.1,0.1-0.1c-0.3,0.3-0.6,0.6-0.9,0.9
							c0,0,0.1-0.1,0.1-0.1C103.9,168.4,104,168.3,104.1,168.2"/>
						<path id="Fill-708" class="st5" d="M106.1,166.4c-0.3,0.3-0.6,0.6-0.9,0.9C105.5,167.1,105.8,166.8,106.1,166.4"/>
						<path id="Fill-710" class="st5" d="M105.3,167.2c-0.2,0.2-0.4,0.4-0.7,0.6C104.9,167.6,105.1,167.4,105.3,167.2"/>
						<path id="Fill-712" class="st5" d="M103.6,168.5c0.1-0.1,0.2-0.2,0.4-0.3c-0.1,0-0.1,0.1-0.2,0.1
							C103.7,168.4,103.7,168.5,103.6,168.5"/>
						<path id="Fill-714" class="st5" d="M104.7,167.8c-0.2,0.2-0.4,0.4-0.6,0.5C104.3,168.1,104.5,167.9,104.7,167.8"/>
						<path id="Fill-716" class="st5" d="M105.4,167c-0.1,0.1-0.2,0.2-0.3,0.3C105.2,167.2,105.3,167.1,105.4,167"/>
						<path id="Fill-718" class="st5" d="M104.7,167.5c-0.1,0.1-0.1,0.1-0.2,0.2C104.6,167.7,104.6,167.7,104.7,167.5
							C104.7,167.6,104.7,167.6,104.7,167.5"/>
						<path id="Fill-720" class="st5" d="M103.7,168.4L103.7,168.4c0,0,0.1-0.1,0.2-0.1c0,0,0,0,0,0
							C103.8,168.3,103.8,168.3,103.7,168.4"/>
						<path id="Fill-722" class="st5" d="M104,168.3C104.1,168.3,104.1,168.3,104,168.3c0.2-0.2,0.4-0.4,0.7-0.6
							c0,0,0.1-0.1,0.1-0.1C104.5,167.9,104.3,168.1,104,168.3"/>
						<path id="Fill-724" class="st5" d="M105.2,167.3c0.3-0.3,0.6-0.6,0.9-0.9C105.8,166.8,105.5,167.1,105.2,167.3
							C105.2,167.3,105.2,167.3,105.2,167.3"/>
						<path id="Fill-726" class="st5" d="M104.6,167.9C104.6,167.9,104.6,167.9,104.6,167.9c0.2-0.2,0.5-0.4,0.7-0.6
							c0,0,0.1,0,0.1-0.1C105.2,167.4,104.9,167.6,104.6,167.9"/>
						<g id="Group-730" transform="translate(0.000000, 57.941461)" class="st6">
							<path id="Fill-728" class="st0" d="M128.1,168.6c0-0.1,0-0.2,0-0.3c0-0.1,0-0.3,0-0.4c0-0.1,0-0.2,0-0.3c0-0.1,0-0.3,0-0.4
								c0-0.1,0-0.2,0-0.3c0-0.1,0-0.3-0.1-0.4c0-0.1,0-0.2-0.1-0.3c0-0.1-0.1-0.3-0.1-0.4c0-0.1,0-0.2-0.1-0.3
								c0-0.1-0.1-0.3-0.1-0.4c0-0.1,0-0.2-0.1-0.3c0-0.2-0.1-0.3-0.2-0.5c0-0.1,0-0.1-0.1-0.2c-0.1-0.2-0.2-0.4-0.2-0.7
								c0-0.1-0.1-0.1-0.1-0.2c-0.1-0.1-0.1-0.3-0.2-0.4c0-0.1-0.1-0.2-0.1-0.3c-0.1-0.1-0.1-0.3-0.2-0.4c0-0.1-0.1-0.2-0.1-0.3
								c-0.1-0.1-0.1-0.2-0.2-0.4c-0.1-0.1-0.1-0.2-0.2-0.3c-0.1-0.1-0.1-0.2-0.2-0.3c-0.1-0.1-0.1-0.2-0.2-0.3
								c-0.1-0.1-0.2-0.2-0.2-0.3c-0.1-0.1-0.1-0.2-0.2-0.3c-0.1-0.1-0.2-0.2-0.3-0.3c-0.1-0.1-0.1-0.2-0.2-0.2
								c-0.1-0.1-0.2-0.2-0.3-0.3c-0.1-0.1-0.1-0.1-0.2-0.2c-0.1-0.1-0.2-0.2-0.3-0.4c-0.1-0.1-0.1-0.1-0.2-0.2
								c-0.2-0.2-0.4-0.3-0.5-0.5c-1.8-1.7-3.9-2.8-6.1-3.4c0.1-0.3,0.2-0.5,0.3-0.8c0-0.1,0.1-0.1,0.1-0.2c0.1-0.2,0.2-0.5,0.2-0.7
								c0,0,0-0.1,0-0.1c0.1-0.3,0.1-0.5,0.2-0.8c0-0.1,0-0.1,0-0.2c0-0.2,0.1-0.5,0.1-0.7c0-0.1,0-0.1,0-0.2c0-0.3,0.1-0.6,0.1-0.8
								c0-0.1,0-0.1,0-0.2c0-0.2,0-0.5,0-0.7c0-0.1,0-0.1,0-0.2c0-0.3,0-0.5-0.1-0.8c0-0.1,0-0.1,0-0.2c0-0.2-0.1-0.5-0.1-0.7
								c0-0.1,0-0.1,0-0.2c-0.1-0.3-0.1-0.5-0.2-0.8c0-0.1,0-0.1,0-0.2c-0.1-0.2-0.1-0.5-0.2-0.7c0,0,0-0.1,0-0.1
								c-0.1-0.3-0.2-0.5-0.3-0.8c0-0.1-0.1-0.1-0.1-0.2c-0.1-0.2-0.2-0.5-0.3-0.7c0,0,0-0.1,0-0.1c-0.1-0.2-0.3-0.5-0.4-0.7
								c0-0.1-0.1-0.1-0.1-0.2c-0.2-0.2-0.3-0.5-0.5-0.7c0,0,0,0,0,0c-0.2-0.2-0.4-0.5-0.6-0.7c0-0.1-0.1-0.1-0.1-0.2
								c-0.2-0.2-0.4-0.4-0.6-0.6c-0.3-0.3-0.7-0.6-1-0.8c1.6-0.3,3.1-1,4.3-2.3c0.2-0.2,0.3-0.4,0.5-0.6c0.1-0.1,0.1-0.1,0.1-0.2
								c0.1-0.1,0.2-0.3,0.3-0.4c0.1-0.1,0.1-0.2,0.1-0.3c0.1-0.1,0.1-0.2,0.2-0.4c0-0.1,0.1-0.2,0.1-0.3c0.1-0.1,0.1-0.2,0.2-0.4
								c0-0.1,0.1-0.2,0.1-0.3c0-0.1,0.1-0.2,0.1-0.4c0-0.1,0.1-0.2,0.1-0.3c0-0.1,0.1-0.2,0.1-0.4c0-0.1,0-0.2,0-0.3
								c0-0.1,0-0.2,0-0.4c0-0.1,0-0.2,0-0.3c0-0.1,0-0.2,0-0.4c0-0.1,0-0.3,0-0.4c0-0.1,0-0.2,0-0.3c0-0.1,0-0.3-0.1-0.4
								c0-0.1,0-0.2-0.1-0.3c0-0.1-0.1-0.3-0.1-0.4c0-0.1-0.1-0.2-0.1-0.3c0-0.1-0.1-0.3-0.1-0.4c0-0.1-0.1-0.2-0.1-0.3
								c-0.1-0.1-0.1-0.2-0.2-0.4c-0.1-0.1-0.1-0.2-0.2-0.3c-0.1-0.1-0.2-0.2-0.2-0.4c-0.1-0.1-0.1-0.2-0.2-0.3
								c-0.1-0.1-0.2-0.3-0.3-0.4c-0.1-0.1-0.1-0.1-0.2-0.2c-0.2-0.2-0.4-0.4-0.5-0.6c-0.2-0.1-0.3-0.3-0.5-0.4c0,0-0.1-0.1-0.1-0.1
								c-0.2-0.1-0.3-0.2-0.5-0.4c0,0,0,0,0,0c-0.2-0.1-0.4-0.2-0.5-0.3c0,0-0.1,0-0.1-0.1c-0.2-0.1-0.4-0.2-0.6-0.2c0,0,0,0,0,0
								c-0.2-0.1-0.4-0.1-0.6-0.2c0,0-0.1,0-0.1,0c-0.4-0.1-0.8-0.2-1.2-0.2c0,0-0.1,0-0.1,0c-0.2,0-0.4,0-0.6,0
								c-0.6,0-1.2,0.1-1.8,0.2c0.1-0.3,0.1-0.5,0.2-0.8c0-0.1,0-0.2,0-0.3c0-0.2,0.1-0.3,0.1-0.5c0-0.1,0-0.2,0-0.3
								c0-0.1,0-0.3,0-0.4c0-0.1,0-0.2,0-0.3c0-0.2,0-0.3,0-0.5c0-0.1,0-0.1,0-0.2c0-0.2,0-0.4,0-0.5c0-0.1,0-0.2,0-0.2
								c0-0.2,0-0.4-0.1-0.5c0-0.1,0-0.1,0-0.2c0-0.2-0.1-0.5-0.1-0.7c0-0.1,0-0.1,0-0.2c0-0.2-0.1-0.4-0.1-0.5c0-0.1,0-0.2-0.1-0.2
								c0-0.2-0.1-0.3-0.2-0.5c0-0.1,0-0.1-0.1-0.2c-0.1-0.2-0.2-0.4-0.3-0.7c0-0.1-0.1-0.1-0.1-0.2c-0.1-0.2-0.2-0.3-0.2-0.5
								c0-0.1-0.1-0.2-0.1-0.2c-0.1-0.2-0.2-0.3-0.3-0.5c0-0.1-0.1-0.1-0.1-0.2c-0.1-0.2-0.3-0.4-0.4-0.6c0,0,0-0.1-0.1-0.1
								c-0.1-0.2-0.3-0.3-0.4-0.5c-0.1-0.1-0.1-0.1-0.2-0.2c-0.1-0.1-0.2-0.3-0.4-0.4c-0.1-0.1-0.1-0.1-0.2-0.2
								c-0.2-0.2-0.4-0.4-0.6-0.6c-1.1-1-2.2-1.7-3.5-2.3c0.1-0.1,0.3-0.2,0.4-0.3c0.3-0.2,0.5-0.4,0.8-0.7c0,0,0.1-0.1,0.1-0.1
								c0.1-0.1,0.3-0.3,0.4-0.4c0.1-0.1,0.1-0.1,0.2-0.2c0.2-0.2,0.4-0.4,0.6-0.6c0.2-0.2,0.4-0.4,0.6-0.6c0.1-0.1,0.1-0.1,0.2-0.2
								c0.1-0.1,0.2-0.3,0.3-0.4c0.1-0.1,0.1-0.2,0.2-0.3c0.1-0.1,0.2-0.3,0.3-0.4c0.1-0.1,0.1-0.2,0.2-0.3c0.1-0.1,0.2-0.3,0.3-0.4
								c0.1-0.1,0.1-0.2,0.2-0.3c0.1-0.1,0.2-0.3,0.2-0.4c0.1-0.1,0.1-0.2,0.2-0.3c0.1-0.1,0.1-0.3,0.2-0.4c0.1-0.1,0.1-0.2,0.2-0.3
								c0.1-0.1,0.1-0.3,0.2-0.4c0-0.1,0.1-0.2,0.1-0.3c0.1-0.1,0.1-0.3,0.2-0.4c0-0.1,0.1-0.2,0.1-0.3c0-0.1,0.1-0.3,0.1-0.4
								c0-0.1,0.1-0.2,0.1-0.4c0-0.1,0.1-0.3,0.1-0.4c0-0.1,0.1-0.2,0.1-0.4c0-0.1,0.1-0.3,0.1-0.4c0-0.1,0.1-0.2,0.1-0.4
								c0-0.1,0.1-0.3,0.1-0.4c0-0.1,0-0.2,0.1-0.4c0-0.1,0-0.3,0.1-0.4c0-0.1,0-0.2,0-0.4c0-0.1,0-0.3,0-0.4c0-0.1,0-0.3,0-0.4
								c0-0.1,0-0.3,0-0.4c0-0.1,0-0.3,0-0.4c0-0.1,0-0.2,0-0.3c0-0.2,0-0.3,0-0.5c0-0.1,0-0.2,0-0.4c0-0.2,0-0.3,0-0.5
								c0-0.1,0-0.2,0-0.4c0-0.2,0-0.3-0.1-0.5c0-0.1,0-0.3-0.1-0.4c0-0.1,0-0.3-0.1-0.4c0-0.1-0.1-0.3-0.1-0.4
								c0-0.1-0.1-0.3-0.1-0.4c0-0.1-0.1-0.3-0.1-0.4c0-0.1-0.1-0.3-0.1-0.4c0-0.1-0.1-0.3-0.1-0.4c0-0.1-0.1-0.3-0.1-0.4
								c0-0.1-0.1-0.3-0.1-0.4c-0.1-0.1-0.1-0.3-0.2-0.4c-0.1-0.1-0.1-0.2-0.2-0.4c-0.1-0.1-0.1-0.3-0.2-0.4
								c-0.1-0.1-0.1-0.2-0.2-0.4c-0.1-0.1-0.1-0.3-0.2-0.4c-0.1-0.1-0.1-0.2-0.2-0.3c-0.1-0.1-0.2-0.3-0.2-0.4
								c-0.1-0.1-0.1-0.2-0.2-0.3c-0.1-0.1-0.2-0.3-0.3-0.4c-0.1-0.1-0.1-0.2-0.2-0.3c-0.1-0.1-0.2-0.3-0.3-0.4
								c-0.1-0.1-0.1-0.2-0.2-0.3c-0.1-0.1-0.2-0.3-0.3-0.4c-0.1-0.1-0.1-0.2-0.2-0.3c-0.1-0.1-0.3-0.3-0.4-0.4
								c-0.1-0.1-0.1-0.1-0.2-0.2c-0.2-0.2-0.4-0.4-0.6-0.6c-0.2-0.2-0.4-0.3-0.5-0.5c-0.2-0.1-0.3-0.3-0.5-0.4l0,0
								c0.6-1.8,1.3-3.6,1.9-5.3c6.5-16.9,14.8-29,15.9-30.6l6.4,5.4l-12.4-10.5c0,0-10.4,8.2-22.5,14.7c-2.4,1.3-4.9,2.5-7.4,3.6
								c-0.7-6.1-5.9-10.8-12.2-10.8c-1.5,0-2.9,0.3-4.2,0.8c-1.8-4.4-6.2-7.5-11.3-7.5c-0.2,0-0.5,0-0.7,0c0.4-0.9,0.6-1.8,0.6-2.8
								c0-4.1-3.4-7.5-7.5-7.5c-2.2,0-4.1,0.9-5.5,2.4c-1.9-4.2-6.2-7.1-11.1-7.1c-1.4,0-2.8,0.3-4.1,0.7c0.2-1.1,0.3-2.2,0.3-3.3
								c0-8.7-6.6-24.2-15.1-25.1c-1,1.7-4.1,12.2-5,14C2.3,29.6,0,46.2,0,64.2c0,56.5,43.1,102.9,98.2,108.3
								c3.5,0.3,7.1,0.5,10.7,0.5c6.5,0,12.9-0.6,19.1-1.7c0-0.2,0.1-0.4,0.1-0.6c0-0.1,0-0.2,0-0.2c0-0.2,0-0.3,0-0.5
								c0-0.1,0-0.2,0-0.3c0-0.1,0-0.3,0-0.4c0-0.1,0-0.2,0-0.3C128.1,168.9,128.1,168.8,128.1,168.6"/>
						</g>
						<polygon id="Fill-731" class="st2" points="121.6,106 111.6,97.6 117.1,91 127.1,99.4 						"/>
						<path id="Fill-733" class="st7" d="M130.2,95.7c10.9,9.1,14.5,23.6,10.3,36.3c3.5-1.9,6.8-4.6,9.6-7.8
							c11.8-14.2,10-35.2-4.2-47.1c-14.2-11.8-35.3-9.9-47.1,4.2c-2.8,3.3-4.8,7-6,10.8C104.4,85.6,119.3,86.6,130.2,95.7"/>
						<path id="Fill-735" class="st8" d="M125.3,101.5c4.3,3.6,7.9,7.7,10.8,12.2c15.6-6.9,31.7-19.1,45.5-35.5
							C203.5,52,213.6,22,210.1,0.1c-22.2,0.4-49.9,15.7-71.8,42c-13.8,16.5-22.9,34.5-26.9,51C116.3,95.2,121,97.9,125.3,101.5"/>
						<g id="Group-739" transform="translate(172.839977, 0.000000)">
							<g id="Clip-738">
							</g>
							<defs>
								<filter id="Adobe_OpacityMaskFilter" filterUnits="userSpaceOnUse" x="0.1" y="0.1" width="37.9" height="38.7">
									<feColorMatrix  type="matrix" values="1 0 0 0 0  0 1 0 0 0  0 0 1 0 0  0 0 0 1 0"/>
								</filter>
							</defs>
							<mask maskUnits="userSpaceOnUse" x="0.1" y="0.1" width="37.9" height="38.7" id="mask-4">
								<g class="st9">
									<polygon id="path-3" class="st2" points="0.1,0.1 37.9,0.1 37.9,38.8 0.1,38.8 									"/>
								</g>
							</mask>
							<path id="Fill-737" class="st10" d="M16.5,24.9C22,29.5,27.1,34.1,32,38.8c5.2-14,7-27.4,5.2-38.7
								c-11.4,0.2-24.3,4.4-37.2,12C5.6,16.1,11.1,20.4,16.5,24.9"/>
						</g>
						<path id="Fill-740" class="st11" d="M162.4,57.1c-4.3-3.6-4.8-9.9-1.3-14.2c3.6-4.3,9.9-4.8,14.2-1.3
							c4.3,3.6,4.8,9.9,1.3,14.2C173.1,60.1,166.7,60.7,162.4,57.1"/>
						<path id="Fill-742" class="st2" d="M173.4,44.1c-3-2.5-7.4-2.1-9.9,0.9c-2.5,3-2.1,7.4,0.9,9.8c3,2.5,7.4,2.1,9.9-0.9
							C176.7,50.9,176.4,46.5,173.4,44.1"/>
						<path id="Fill-744" class="st7" d="M202,45.8c0.5-1.1,1-2.2,1.4-3.3C191,29.4,176.8,18.9,169.9,14c-1,0.6-2,1.3-3,1.9
							C173.4,20.4,188.8,31.7,202,45.8"/>
						<path id="Fill-746" class="st11" d="M151,34.3c-1.9,2.3-5.1,3-7.7,2.1c-0.7,0.8-1.5,1.6-2.2,2.4c4.1,2.1,9.2,1.1,12.3-2.5
							c2.6-3.2,3-7.4,1.3-10.9c-0.8,0.7-1.6,1.4-2.4,2.1C153,29.7,152.7,32.3,151,34.3"/>
						<path id="Fill-748" class="st2" d="M151,34.3c1.6-2,2-4.5,1.2-6.8c-3.1,2.8-6,5.7-9,8.9C146,37.3,149.1,36.6,151,34.3"/>
						<path id="Fill-750" class="st11" d="M186.6,64c1.7-2.1,4.4-2.9,6.9-2.3c0.6-0.9,1.1-1.8,1.7-2.7c-3.8-1.3-8.2-0.2-10.9,3.1
							c-3.2,3.8-3.1,9.2,0,12.9c0.7-0.8,1.3-1.7,1.9-2.5C184.5,69.9,184.6,66.4,186.6,64"/>
						<path id="Fill-752" class="st2" d="M186.6,64c-2,2.4-2.1,5.9-0.4,8.4c2.7-3.5,5.1-7.1,7.4-10.7
							C191.1,61.1,188.4,61.9,186.6,64"/>
						<path id="Fill-754" class="st7" d="M172.4,91.2c0.6-1.4,1.2-2.8,1.8-4.2c-16-16.7-34-30.2-42.9-36.4c-1.3,0.8-2.5,1.6-3.8,2.5
							C135.8,58.8,155.5,73.2,172.4,91.2"/>
						<path id="Fill-756" class="st11" d="M132.8,120.5c1.6-2.4,3.3-4.7,4.8-7c-7.5-12.8-19.5-19.7-25.7-22.6c-2,1.9-4,3.9-6,5.9
							C111.8,99.4,125.1,106.5,132.8,120.5"/>
						<path id="Fill-758" class="st7" d="M147.1,75.5c-4.9,1.7-12,7.5-18.7,15.4c-6.7,8-11.1,16-11.9,21.1c4.9-1.7,12-7.5,18.7-15.4
							C141.9,88.6,146.3,80.6,147.1,75.5"/>
						<path id="Fill-760" class="st2" d="M47.1,130.3c-0.2-0.3-0.3-0.6-0.5-0.8c-0.2-0.3-0.3-0.5-0.5-0.8l-0.3-0.4l-0.3-0.3
							c-0.2-0.2-0.5-0.4-0.7-0.6c-0.2-0.2-0.5-0.4-0.7-0.5c-0.3-0.1-0.5-0.3-0.8-0.4c-0.3-0.1-0.5-0.2-0.8-0.3
							c-0.3-0.1-0.6-0.2-0.8-0.3c-0.3-0.1-0.6-0.1-0.9-0.1c-0.3,0-0.6-0.1-0.9,0c-0.3,0-0.6,0-0.9,0.1c-0.1,0-0.3,0-0.4,0.1
							l-0.4,0.1c-0.3,0-0.5,0.2-0.8,0.2l-0.1,0l0,0c0,0,0,0,0,0l0,0l0,0l0,0l-0.1,0l-0.2,0.1c-0.1,0.1-0.3,0.1-0.4,0.2
							c-0.2,0.1-0.5,0.2-0.7,0.4c-0.2,0.1-0.4,0.3-0.7,0.5l-1.3,1l-0.4-1.7c-0.1-0.3-0.1-0.7-0.2-1l-0.2-0.5l-0.1-0.3l0-0.1l0,0
							c0,0,0,0.1,0,0l0,0l0,0l0,0l-0.1-0.1l-0.2-0.5l-0.1-0.3l-0.1-0.2c-0.2-0.3-0.3-0.6-0.5-0.9l-0.3-0.4c-0.1-0.1-0.2-0.3-0.3-0.4
							c-0.1-0.1-0.2-0.3-0.3-0.4l-0.4-0.4c-0.2-0.3-0.5-0.5-0.8-0.7c-0.3-0.2-0.6-0.4-0.8-0.6c-0.3-0.2-0.6-0.4-0.9-0.5
							c-0.3-0.1-0.6-0.3-1-0.4c-0.3-0.1-0.7-0.3-1-0.3l-0.5-0.1c-0.2,0-0.3-0.1-0.5-0.1c-0.3-0.1-0.7-0.1-1-0.1
							c-0.4-0.1-0.7,0-1.1,0c-0.4,0-0.7,0.1-1.1,0.1c-0.4,0-0.7,0.1-1.1,0.2l-1,0.2l-0.3-0.8c-0.1-0.2-0.2-0.5-0.3-0.7
							c-0.1-0.2-0.2-0.5-0.3-0.7c-0.1-0.2-0.3-0.5-0.4-0.7c-0.1-0.2-0.3-0.4-0.5-0.6c-0.2-0.2-0.4-0.4-0.6-0.6
							c-0.2-0.2-0.4-0.4-0.6-0.5c-0.2-0.2-0.4-0.3-0.7-0.4c-0.2-0.1-0.5-0.3-0.7-0.4c-0.3-0.1-0.5-0.2-0.8-0.3
							c-0.3-0.1-0.5-0.2-0.8-0.2c-0.1,0-0.3-0.1-0.4-0.1l-0.2-0.1l0-0.1h0h0h0l0,0.1l-0.1,0l-0.1,0l-0.9-0.1c-0.3,0-0.5,0-0.8,0
							c-0.1,0-0.3,0-0.4,0l-0.4,0.1c-0.3,0.1-0.6,0.1-0.8,0.2l-0.8,0.3c0.2-0.2,0.5-0.3,0.8-0.5c0.2-0.2,0.5-0.3,0.8-0.4l0.4-0.2
							c0.1-0.1,0.3-0.1,0.4-0.1c0.3-0.1,0.6-0.2,0.9-0.2l0.9-0.1l0.1,0l0.1,0l0,0l0-0.1l0-0.1h0l0.2,0.1c0.2,0,0.3,0,0.5,0.1
							c0.3,0,0.6,0.1,0.9,0.1c0.3,0.1,0.6,0.2,0.9,0.2c0.3,0.1,0.6,0.2,0.9,0.3c0.3,0.1,0.6,0.3,0.9,0.4c0.3,0.2,0.6,0.3,0.8,0.5
							c0.3,0.2,0.5,0.4,0.7,0.6c0.2,0.2,0.5,0.5,0.7,0.7c0.2,0.2,0.4,0.5,0.6,0.8c0.2,0.3,0.4,0.6,0.5,0.9c0.2,0.3,0.3,0.6,0.4,0.9
							l-1.3-0.7c0.4-0.1,0.8-0.2,1.3-0.3c0.4-0.1,0.9-0.2,1.3-0.2c0.4,0,0.9-0.1,1.3,0c0.4,0,0.9,0,1.3,0.1c0.2,0,0.4,0.1,0.6,0.1
							l0.6,0.2c0.4,0.1,0.8,0.3,1.2,0.4c0.4,0.1,0.8,0.4,1.2,0.5c0.4,0.2,0.8,0.4,1.1,0.7c0.4,0.3,0.7,0.5,1,0.8
							c0.3,0.3,0.7,0.6,1,0.9l0.4,0.5c0.1,0.2,0.3,0.3,0.4,0.5c0.1,0.2,0.3,0.3,0.4,0.5l0.3,0.6c0.2,0.4,0.4,0.8,0.6,1.2l0.1,0.3
							l0.1,0.3l0.2,0.6l0,0.1l0,0.1l0,0.1l0.1,0.3l0.2,0.6c0.1,0.4,0.1,0.9,0.2,1.3l-1.7-0.7c0.3-0.2,0.6-0.4,0.9-0.6
							c0.3-0.2,0.7-0.3,1-0.5c0.2-0.1,0.3-0.1,0.5-0.2l0.2-0.1l0.2-0.1l0.1,0c0.4-0.1,0.7-0.2,1-0.2l0.5-0.1c0.2,0,0.4,0,0.5,0
							c0.4,0,0.7,0,1.1,0c0.4,0,0.7,0.1,1,0.2c0.3,0.1,0.7,0.2,1,0.3c0.3,0.1,0.6,0.3,0.9,0.4c0.2,0.1,0.3,0.2,0.5,0.2l0.4,0.3
							c0.3,0.2,0.5,0.4,0.8,0.6c0.2,0.2,0.5,0.5,0.7,0.7c0.2,0.3,0.4,0.5,0.6,0.8l0.3,0.4l0.2,0.4c0.2,0.3,0.3,0.6,0.4,0.9
							C47,129.7,47,130,47.1,130.3"/>
						<path id="Fill-762" class="st2" d="M79.1,180l0.2-0.9c0.1-0.3,0.1-0.6,0.2-0.9c0-0.3,0.1-0.6,0.1-0.9c0-0.3,0-0.6,0-0.9
							c0-0.3-0.1-0.6-0.1-0.9c0-0.3-0.1-0.6-0.2-0.9l-0.2-0.8l-0.3-0.8l-0.4-0.8l-0.5-0.7c-0.2-0.2-0.3-0.4-0.5-0.7
							c-0.2-0.2-0.4-0.4-0.6-0.6c-0.2-0.2-0.4-0.4-0.6-0.5c-0.2-0.2-0.4-0.3-0.7-0.5l-0.7-0.4l-0.7-0.3l-0.7-0.3l0.3-0.8l0.3-0.9
							c0.1-0.3,0.1-0.6,0.2-0.9c0.1-0.6,0.2-1.2,0.2-1.8l0-0.2l0,0l0,0v0c0,0,0-0.1,0,0l0-0.1l0-0.1l0-0.5c0-0.3,0-0.7-0.1-0.9
							l-0.1-0.8l-0.2-0.9c-0.1-0.3-0.2-0.6-0.3-0.8c-0.1-0.3-0.2-0.6-0.3-0.8c-0.1-0.3-0.2-0.5-0.4-0.8l-0.4-0.8
							c-0.1-0.3-0.3-0.5-0.5-0.7c-0.2-0.2-0.3-0.5-0.5-0.7c-0.4-0.5-0.8-0.9-1.2-1.3c-0.5-0.4-0.9-0.8-1.4-1.1l-0.4-0.2l-0.4-0.2
							c-0.3-0.1-0.5-0.3-0.8-0.4l-0.8-0.4c-0.3-0.1-0.6-0.2-0.8-0.3c-0.3-0.1-0.6-0.2-0.9-0.2c-0.3-0.1-0.6-0.1-0.9-0.2l-0.9-0.1
							l-0.1,0l0,0l0,0c0,0,0,0,0,0l0,0l-0.1,0l-0.2,0l-0.5,0c-0.3,0-0.6,0-0.9,0c-0.3,0-0.6,0-0.9,0.1c-0.3,0-0.6,0.1-0.9,0.2
							c-0.3,0.1-0.6,0.1-0.9,0.2c-0.6,0.2-1.1,0.4-1.7,0.6l-1.5,0.7l0.2-1.6l0-0.1l0.1,0l0.1,0v0v0v0l-0.1-0.1l0-0.2l0-0.5
							c0-0.2,0-0.3,0-0.4l0-0.4c0-0.3-0.1-0.5-0.1-0.8c0-0.3-0.1-0.5-0.2-0.8c-0.1-0.3-0.2-0.5-0.3-0.8c-0.1-0.3-0.2-0.5-0.4-0.8
							c-0.1-0.3-0.3-0.5-0.4-0.7c-0.2-0.2-0.3-0.5-0.5-0.7c-0.2-0.2-0.4-0.4-0.6-0.7c-0.2-0.2-0.4-0.4-0.6-0.6l-0.7-0.5l-0.7-0.5
							l-0.8-0.4l-0.8-0.3l-0.9-0.3l-0.9-0.2l0.9,0l0.9,0.1c0.3,0.1,0.6,0.1,0.9,0.2c0.3,0.1,0.6,0.2,0.9,0.3
							c0.3,0.1,0.6,0.3,0.9,0.4l0.8,0.5c0.3,0.2,0.5,0.4,0.8,0.6c0.2,0.2,0.5,0.4,0.7,0.7c0.2,0.2,0.5,0.5,0.7,0.7
							c0.2,0.3,0.4,0.5,0.6,0.8c0.2,0.3,0.4,0.6,0.5,0.9c0.1,0.3,0.3,0.6,0.4,0.9c0.1,0.3,0.3,0.6,0.3,1c0.1,0.3,0.2,0.6,0.2,1
							l0.1,0.5c0,0.2,0,0.4,0,0.5l0,0.5l0,0.2l0,0.1l0,0l0,0.1l0,0l0,0.1l-1.4-0.9c0.6-0.3,1.2-0.6,1.9-0.9c0.3-0.1,0.7-0.2,1-0.3
							c0.3-0.1,0.7-0.2,1-0.2c0.3-0.1,0.7-0.1,1-0.2c0.4,0,0.7-0.1,1.1-0.1l0.5,0l0.2,0h0.1h0l0.1,0l0.1,0l1.1,0.1
							c0.4,0,0.7,0.1,1,0.2c0.3,0.1,0.7,0.1,1,0.2c0.3,0.1,0.7,0.2,1,0.3l1,0.4c0.3,0.1,0.6,0.3,0.9,0.5l0.5,0.3l0.4,0.3
							c0.6,0.4,1.1,0.8,1.7,1.3c0.5,0.5,1,1,1.4,1.5c0.2,0.3,0.4,0.5,0.6,0.8c0.2,0.3,0.4,0.6,0.6,0.9l0.5,0.9
							c0.2,0.3,0.3,0.6,0.4,1c0.1,0.3,0.2,0.7,0.3,1c0.1,0.3,0.2,0.7,0.3,1l0.2,1l0.1,1.1c0,0.4,0,0.7,0,1l0,0.5l0,0.1l0,0.1l0,0.1
							l0,0l0,0l0,0l0,0.3c-0.1,0.7-0.2,1.4-0.4,2.1c-0.1,0.3-0.2,0.7-0.3,1l-0.4,1l-0.5-1.2l0.9,0.5c0.3,0.2,0.5,0.4,0.8,0.6
							c0.3,0.2,0.5,0.4,0.8,0.6c0.2,0.2,0.5,0.5,0.7,0.7c0.2,0.3,0.4,0.5,0.6,0.8c0.2,0.3,0.3,0.6,0.5,0.8c0.2,0.3,0.3,0.6,0.4,0.9
							c0.1,0.3,0.2,0.6,0.3,0.9l0.2,0.9c0,0.3,0.1,0.6,0.1,0.9c0,0.3,0,0.6,0.1,1c0,0.3,0,0.6-0.1,0.9c-0.1,0.3-0.1,0.6-0.1,0.9
							c-0.1,0.3-0.1,0.6-0.2,0.9c-0.1,0.3-0.2,0.6-0.3,0.9L79.1,180z"/>
						<path id="Fill-764" class="st2" d="M68.2,212.2l0.1-0.8l0-0.8c0-0.3,0-0.6,0-0.8c0-0.3-0.1-0.5-0.1-0.8c0-0.3-0.1-0.5-0.2-0.8
							l-0.2-0.8l-0.3-0.7l-0.4-0.7l-0.4-0.6l-0.5-0.6l-0.5-0.6c-0.2-0.2-0.4-0.3-0.6-0.5c-0.2-0.1-0.4-0.3-0.6-0.4
							c-0.2-0.1-0.4-0.3-0.6-0.4l-0.7-0.3l-0.7-0.3l-0.9-0.4l0.2-1.1c0.1-0.4,0.2-0.8,0.3-1.2c0.1-0.4,0.1-0.8,0.1-1.3
							c0-0.2,0-0.4,0-0.6l-0.1-0.2l-0.1-0.1v0v0v0v0c0,0,0.1-0.1,0.1,0.1l0-0.4l0-0.7c0-0.1,0-0.2,0-0.3l0-0.3
							c0-0.2-0.1-0.4-0.1-0.6l-0.2-0.6c-0.1-0.4-0.3-0.8-0.4-1.2c-0.2-0.4-0.3-0.8-0.5-1.2l-0.3-0.6l-0.2-0.3l-0.2-0.3l-0.4-0.5
							c-0.1-0.2-0.3-0.3-0.4-0.5c-0.3-0.3-0.6-0.6-0.9-0.9c-0.3-0.3-0.7-0.6-1-0.9c-0.4-0.2-0.7-0.5-1.1-0.7
							c-0.4-0.2-0.8-0.5-1.2-0.6c-0.2-0.1-0.4-0.2-0.6-0.3l-0.6-0.2c-0.4-0.2-0.9-0.3-1.3-0.4c-0.5-0.1-0.9-0.2-1.4-0.3
							c0.2,0,0.5-0.1,0.7-0.1c0.2,0,0.5-0.1,0.7-0.1c0.5,0,1,0,1.5,0l0.7,0.1c0.2,0,0.5,0.1,0.7,0.2c0.5,0.1,1,0.3,1.4,0.4
							c0.5,0.2,0.9,0.4,1.4,0.6c0.4,0.3,0.9,0.5,1.3,0.8c0.4,0.3,0.8,0.6,1.2,1c0.2,0.2,0.4,0.3,0.5,0.5l0.5,0.6
							c0.4,0.4,0.6,0.8,0.9,1.2c0.3,0.4,0.5,0.9,0.7,1.4c0.2,0.5,0.4,0.9,0.6,1.4l0.2,0.7c0.1,0.3,0.1,0.5,0.2,0.8
							c0,0.3,0.1,0.6,0.1,0.8l0.1,0.7l0,0.4l-0.1,0.1v0v0l0.1,0l0,0.1l0,0.2c0,0.3,0,0.5,0,0.8c-0.1,0.5-0.1,1-0.2,1.5
							c-0.1,0.5-0.2,1-0.4,1.5l-0.7-1.4l0.9,0.4c0.3,0.2,0.6,0.3,0.8,0.5c0.3,0.2,0.5,0.4,0.8,0.6c0.2,0.2,0.5,0.4,0.7,0.6
							c0.2,0.2,0.4,0.5,0.6,0.7c0.2,0.2,0.4,0.5,0.5,0.8c0.2,0.3,0.3,0.5,0.5,0.8c0.1,0.3,0.3,0.6,0.4,0.8l0.3,0.9
							c0.1,0.3,0.1,0.6,0.2,0.9c0,0.3,0.1,0.6,0.1,0.9c0,0.3,0,0.6,0,0.9c0,0.3-0.1,0.6-0.1,0.9c-0.1,0.3-0.1,0.6-0.2,0.9
							c-0.1,0.3-0.2,0.6-0.3,0.8L68.2,212.2z"/>
					</g>
				</g>
				<path id="Page-1-Copy-3" class="st12" d="M113,40.5c0-4.2-3.4-7.7-7.7-7.7c-1.1,0-2.2,0.2-3.2,0.7c-0.5-5.6-5.1-9.9-10.8-9.9
					c-2.7,0-5.1,1-7,2.5c-1.4-2.1-3.7-3.6-6.5-3.6c-1.3,0-2.5,0.3-3.6,0.9C72.7,16.9,66.8,12,59.7,12c-5.4,0-10.1,2.8-12.7,7
					c-0.2,0-0.4,0-0.6,0c-5.2,0-9.7,2.9-11.9,7.2c-0.5-0.1-1-0.1-1.5-0.1c-6.1,0-11.3,4.1-12.9,9.8c-1.3-0.9-2.8-1.4-4.5-1.4
					c-4,0-7.3,3.1-7.6,7h104.9C113,41.2,113,40.8,113,40.5"/>
				<path id="Page-1-Copy-2" class="st13" d="M105.8,41c0-4.3-3.2-7.8-7.1-7.8c-1,0-2,0.2-2.9,0.7c-0.4-5.7-4.8-10.1-10.1-10.1
					c-2.5,0-4.7,1-6.5,2.6c-1.3-2.2-3.5-3.6-6-3.6c-1.2,0-2.3,0.3-3.3,0.9C68.3,17,62.7,12,56.1,12c-5,0-9.4,2.9-11.9,7.1
					c-0.2,0-0.4,0-0.6,0c-4.8,0-9,3-11.1,7.4c-0.5-0.1-0.9-0.1-1.4-0.1c-5.7,0-10.5,4.2-12,9.9c-1.2-0.9-2.6-1.5-4.2-1.5
					C11.4,34.9,8.3,38,8,42h97.7C105.7,41.7,105.8,41.3,105.8,41"/>
			</g>
		</g>
	</g>
</g>
</svg>
