<?xml version="1.0" encoding="UTF-8"?>
<svg width="61px" height="73px" viewBox="0 0 61 73" version="1.1" xmlns="http://www.w3.org/2000/svg" xmlns:xlink="http://www.w3.org/1999/xlink">
    <!-- Generator: Sketch 42 (36781) - http://www.bohemiancoding.com/sketch -->
    <title>Page 1@1x</title>
    <desc>Created with Sketch.</desc>
    <defs></defs>
    <g id="final" stroke="none" stroke-width="1" fill="none" fill-rule="evenodd">
        <g id="dashboard" transform="translate(-23.000000, -11.000000)" fill="#FFFFFF">
            <g id="Page-1" transform="translate(23.000000, 11.000000)">
                <path d="M20.0940048,41.9911923 C20.133034,42.2262965 20.3359854,42.3993952 20.572762,42.4329816 C20.7288785,42.4562336 20.8693833,42.4691514 21.0098882,42.4562336 C22.922315,42.2624664 24.8061205,41.9343539 26.6092659,41.260044 C30.1713235,39.9295091 32.8383134,36.9506612 33.920721,33.3259225 C34.2407597,32.2563274 34.4567209,31.1686475 34.5920218,30.0551319 C35.1020023,25.9782697 34.8470121,21.8833225 34.8756334,17.7961261 C34.8808373,17.2949149 34.7247208,16.7652845 34.5269733,16.3002432 C34.2537694,15.6672703 33.741187,15.2719852 33.0048376,15.2539002 C32.676993,15.2487331 32.3491484,15.2409824 32.0239057,15.2409824 C28.820916,15.2409824 25.6127224,15.2409824 22.4097326,15.243566 C22.0168395,15.243566 21.6213444,15.2280646 21.2336551,15.2719852 C20.4738883,15.3624099 20.1148204,15.7654457 20.0367621,16.5585995 C20.0185485,16.7523667 20.0211505,16.951301 20.0211505,17.1450682 L20.0211505,28.4429886 C20.0211505,28.6367559 20.0185485,28.8331066 20.0393641,29.0268738 C20.1174223,29.8019427 20.4816941,30.18431 21.2752862,30.2695676 C21.6655774,30.3109046 22.0610725,30.2902361 22.4513637,30.2954032 C23.2371499,30.3005703 24.0255382,30.2695676 24.8087225,30.3109046 C25.9067417,30.3729101 26.380295,30.9180419 26.1773436,31.9488834 C26.029033,32.7084509 25.805266,33.4628513 25.5268583,34.1862489 C24.8243341,35.9947429 23.5597907,37.2245188 21.6343541,37.7153958 C21.3819658,37.7799848 21.1165678,37.808404 20.8719853,37.8936616 C20.4062378,38.0590096 20.0757912,38.3767879 20.0601796,38.8857497 C20.0367621,39.9088406 19.9196748,40.9422658 20.0940048,41.9911923 M11.868062,63.0811399 C11.3928375,63.3004587 10.8439867,62.9548654 10.8439867,62.4331524 C10.8406401,60.9843189 10.8372934,59.7182511 10.8473334,58.4521832 C10.8573733,57.5350317 10.937693,56.6178803 10.9309997,55.7007288 C10.9243064,54.2784793 10.6331477,53.9727622 9.13384795,53.9461781 C7.03215096,53.9129479 4.93045397,53.939532 2.83210363,53.932886 C2.24309301,53.929563 1.64738908,53.936209 1.06841841,53.8431647 C0.539647515,53.7600894 0.158129272,53.394558 0.0778096418,52.8462609 C0.00752996533,52.354455 0.00418331407,51.8526801 0.00418331407,51.3509052 C0.000836662815,36.4937156 0.000836662815,21.633203 0.000836662815,6.77601339 C0.000836662815,6.60653974 -0.00250998844,6.44371212 0.00418331407,6.27423848 C0.0744629905,4.59611708 0.362274999,4.31698402 2.13600017,4.25052377 C2.55433157,4.2339087 2.97600963,4.24387774 3.39434104,4.24387774 L50.8096961,4.24387774 C51.4857196,4.24387774 52.1583965,4.2339087 52.8277268,4.28043088 C53.7045494,4.34689113 54.0559478,4.66922336 54.1563473,5.48668448 C54.2199337,5.98513638 54.2232804,6.48691129 54.2232804,6.9886862 C54.226627,21.5933268 54.226627,36.2046135 54.2232804,50.8092541 C54.2232804,51.1315864 54.2232804,51.4505956 54.2065471,51.7729278 C54.1563473,52.9492743 53.1891651,53.8763948 52.0077972,53.919594 C51.6095457,53.936209 51.2079476,53.932886 50.8063494,53.932886 C44.5614982,53.936209 38.3133003,53.9694392 32.068449,53.9129479 C30.1842844,53.8963329 28.3369329,54.3615547 26.6870338,55.2620911 C22.2527209,57.6812443 17.7682082,60.0239682 13.3004288,62.3866302 C12.8519775,62.6258871 12.3901396,62.8385599 11.868062,63.0811399" id="Fill-1"></path>
                <path d="M8.22902923,72.3951538 L8.22902923,68.261326 C8.22902923,68.1084674 8.35954863,67.982193 8.52353454,67.982193 L9.0824253,67.982193 C9.24306456,67.982193 9.37358396,68.1084674 9.37358396,68.261326 L9.37358396,70.3947002 C9.37358396,70.617342 9.63127611,70.7502625 9.82872853,70.6306341 L26.1771199,60.5619057 C27.1141823,59.9936705 28.2051906,59.6813073 29.3363587,59.6613693 L58.0673598,59.2027935 C58.7299967,59.1928245 59.2721542,58.7276027 59.2721542,58.1626906 L59.3257006,1.59836909 C59.3257006,1.31591301 59.0412353,1.08662514 58.6931836,1.08662514 L4.48077982,1.1298243 C4.32014056,1.1298243 4.18627451,1.00354982 4.18627451,0.850691241 L4.18627451,0.322332228 C4.18627451,0.166150633 4.31679391,0.0431991646 4.48077982,0.0431991646 L58.6931836,0 C59.6704057,0 60.4669087,0.721093747 60.4669087,1.59836909 L60.4200556,58.1626906 C60.4200556,59.332391 59.3926337,60.2694806 58.084093,60.2894187 L29.353092,60.7479944 C28.4394562,60.7612865 27.5525936,61.0138354 26.7995971,61.4757342 L8.6841738,72.6277647 C8.48672138,72.7473931 8.22902923,72.6144726 8.22902923,72.3951538" id="Fill-3"></path>
            </g>
        </g>
    </g>
</svg>