<?xml version="1.0" encoding="UTF-8"?>
<svg viewBox="0 0 175 80" version="1.1" xmlns="http://www.w3.org/2000/svg" xmlns:xlink="http://www.w3.org/1999/xlink">
    <title>Logo-dark</title>
    <g id="Symbols" stroke="none" stroke-width="1" fill="none" fill-rule="evenodd">
        <g id="bloch_logo" transform="translate(2.000000, 3.000000)">
            <g id="Group-3" transform="translate(0.000000, 0.619358)">
                <g id="Clip-2"></g>
                <path d="M14.6526058,50.2238694 L4.6178836,50.2238694 C4.20974868,50.2238694 3.87919312,49.8978916 3.87919312,49.4965175 L3.87919312,16.520645 C3.87919312,16.1181621 4.20974868,15.7921843 4.6178836,15.7921843 L11.638254,15.7921843 L11.638254,41.8438 C11.638254,42.2473916 11.9688095,42.5733694 12.3769444,42.5733694 L49.6948677,42.5733694 C50.1030026,42.5733694 50.4335582,42.2473916 50.4335582,41.8438 L50.4335582,12.6942862 C50.4335582,12.2929121 50.1030026,11.9669343 49.6948677,11.9669343 L16.2559127,11.9669343 C15.8477778,11.9669343 15.5183466,11.6409565 15.5183466,11.2384736 L15.5183466,5.04378617 C15.5183466,4.64130334 15.8477778,4.31532551 16.2559127,4.31532551 L58.192619,4.31532551 L58.192619,50.4966264 L16.8371958,67.7801038 C16.2165608,68.051752 15.5093519,67.6015921 15.5093519,66.9219173 L15.393545,50.9501125 C15.3912963,50.5487385 15.0596164,50.2238694 14.6526058,50.2238694 L14.6526058,50.2238694 Z M16.2559127,15.7921843 L45.8158995,15.7921843 C46.2229101,15.7921843 46.5534656,16.1181621 46.5534656,16.520645 L46.5534656,38.01855 C46.5534656,38.419924 46.2229101,38.7470106 45.8158995,38.7470106 L16.2559127,38.7470106 C15.8477778,38.7470106 15.5183466,38.419924 15.5183466,38.01855 L15.5183466,16.520645 C15.5183466,16.1181621 15.8477778,15.7921843 16.2559127,15.7921843 L16.2559127,15.7921843 Z M12.3769444,0.490075508 C11.9688095,0.490075508 11.638254,0.814944566 11.638254,1.21742739 L11.638254,11.643174 C11.638254,11.8216857 11.4920899,11.9669343 11.3020767,11.9669343 L0.738915344,11.9669343 C0.330780423,11.9669343 0.000224867726,12.2929121 0.000224867726,12.6942862 L0.000224867726,53.3217675 C0.000224867726,53.7242504 0.330780423,54.0502282 0.738915344,54.0502282 L11.638254,54.0502282 L11.638254,72.3870353 C11.638254,72.7462762 11.9047222,73.0478611 12.2633862,73.1132784 C13.0346825,73.2529832 13.8127249,73.1664993 14.5176852,72.8815459 L15.5183466,72.4812806 L22.3374603,69.7359708 L61.5712566,53.2652204 C61.874828,53.137712 62.0715873,52.8438885 62.0715873,52.5190194 L62.0715873,1.21742739 C62.0715873,0.814944566 61.7410317,0.490075508 61.3340212,0.490075508 L12.3769444,0.490075508 Z" id="Fill-1" fill="#020302" mask="url(#mask-2)"></path>
            </g>
            <path d="M74.5302712,25.2322361 L74.5302712,16.214625 L78.822996,16.214625 C84.8910516,16.214625 85.5926389,18.6295219 85.5926389,20.4467929 C85.5926389,22.5013402 84.8708135,25.2322361 78.6352315,25.2322361 L74.5302712,25.2322361 Z M87.3241204,33.9593499 C87.3241204,37.6559828 84.6684325,39.5309097 79.4290146,39.5309097 L74.5302712,39.5309097 L74.5302712,28.9432829 L79.4290146,28.9432829 C84.7415146,28.9432829 87.3241204,30.583151 87.3241204,33.9593499 L87.3241204,33.9593499 Z M85.8107606,26.7335081 C88.6395966,25.5859331 90.2901257,23.1898852 90.2901257,20.1252501 C90.2901257,15.0182642 86.4864881,12.3195226 79.2895966,12.3195226 L70.462414,12.3195226 C70.0621495,12.3195226 69.7383399,12.6399565 69.7383399,13.0335692 L69.7383399,42.7108567 C69.7383399,43.1044693 70.0621495,43.4249033 70.462414,43.4249033 L79.9923082,43.4249033 C87.5242526,43.4249033 92.0216071,39.9544591 92.0216071,34.1445142 C92.0216071,30.2693696 89.8808664,27.7269643 85.8107606,26.7335081 L85.8107606,26.7335081 Z" id="Fill-4" fill="#020302"></path>
            <path d="M100.883813,39.9093323 C100.508284,39.9902723 100.350876,39.9902723 100.133879,39.9902723 C99.7302414,39.9902723 99.4885086,39.5290248 99.4885086,38.7562134 L99.4885086,10.456016 C99.4885086,10.059077 99.1624504,9.73753424 98.7599372,9.73753424 L95.5195933,9.73753424 C95.11708,9.73753424 94.7910218,10.059077 94.7910218,10.456016 L94.7910218,38.4790214 C94.7910218,42.1800894 96.2639054,43.9774025 99.2917493,43.9774025 C100.309276,43.9774025 101.043469,43.8532204 101.667477,43.5715933 L101.972173,43.4341061 L101.486458,40.7320382 L101.322305,39.8139782 L100.883813,39.9093323 Z" id="Fill-6" fill="#020302"></path>
            <path d="M120.958598,31.7574218 C120.958598,36.633784 118.499669,39.9101938 114.84332,39.9101938 C111.184722,39.9101938 108.725794,36.633784 108.725794,31.7574218 C108.725794,26.8256212 111.184722,23.5115133 114.84332,23.5115133 C118.499669,23.5115133 120.958598,26.8256212 120.958598,31.7574218 M114.84332,19.5254919 C107.65205,19.5254919 103.888889,25.679155 103.888889,31.7574218 C103.888889,39.7261383 109.400397,43.8962152 114.84332,43.8962152 C120.285119,43.8962152 125.795503,39.7261383 125.795503,31.7574218 C125.795503,25.679155 122.033466,19.5254919 114.84332,19.5254919" id="Fill-8" fill="#020302"></path>
            <path d="M144.909259,37.7591836 C143.800661,38.7404434 142.025331,39.909085 139.866601,39.909085 C135.928042,39.909085 133.282474,36.633784 133.282474,31.7574218 C133.282474,26.9021262 136.028108,23.5115133 139.959921,23.5115133 C141.42381,23.5115133 142.711177,24.0736588 144.26164,25.3930928 L144.605688,25.6846988 L147.04213,22.5801481 L146.756548,22.3151525 C144.724868,20.4380081 142.455952,19.5254919 139.819378,19.5254919 C134.340476,19.5254919 128.444444,23.3529595 128.444444,31.7574218 C128.444444,39.0187442 132.902447,43.8962152 139.538294,43.8962152 C142.265939,43.8962152 144.99246,42.8273627 147.214153,40.884801 L147.498611,40.6364369 L145.273545,37.4354234 L144.909259,37.7591836 Z" id="Fill-10" fill="#020302"></path>
            <path d="M161.998869,19.606014 C159.027242,19.606014 156.805549,21.0274547 154.884054,22.7205436 L154.994239,19.1092859 L154.994239,10.4520244 C154.994239,10.057303 154.669306,9.73797775 154.270165,9.73797775 L151.020827,9.73797775 C150.621687,9.73797775 150.296753,10.057303 150.296753,10.4520244 L150.296753,42.710524 C150.296753,43.1041367 150.621687,43.4245707 151.020827,43.4245707 L154.270165,43.4245707 C154.669306,43.4245707 154.994239,43.1041367 154.994239,42.710524 L154.994239,27.2432088 C154.994239,27.0513919 155.076316,26.8606838 155.215734,26.7265228 C157.312626,24.698586 158.740536,23.7317402 160.784583,23.7317402 C163.532467,23.7317402 164.654557,25.3449978 164.654557,29.2999736 L164.654557,42.710524 C164.654557,43.1041367 164.978366,43.4245707 165.378631,43.4245707 L168.62797,43.4245707 C169.02711,43.4245707 169.352044,43.1041367 169.352044,42.710524 L169.352044,28.7943754 C169.352044,22.6972595 166.878499,19.606014 161.998869,19.606014" id="Fill-12" fill="#020302"></path>
        </g>
    </g>
</svg>
