<?xml version="1.0" encoding="UTF-8"?>
<svg viewBox="0 0 66 80" version="1.1" xmlns="http://www.w3.org/2000/svg" xmlns:xlink="http://www.w3.org/1999/xlink">
    <title>Logo-dark</title>
    <g id="Symbols" stroke="none" stroke-width="1" fill="none" fill-rule="evenodd">
        <g id="bloch_logo" transform="translate(2.000000, 3.000000)">
            <g id="Group-3" transform="translate(0.000000, 0.619358)">
                <path fill="#FFF" d="M14.6526058,50.2238694 L4.6178836,50.2238694 C4.20974868,50.2238694 3.87919312,49.8978916 3.87919312,49.4965175 L3.87919312,16.520645 C3.87919312,16.1181621 4.20974868,15.7921843 4.6178836,15.7921843 L11.638254,15.7921843 L11.638254,41.8438 C11.638254,42.2473916 11.9688095,42.5733694 12.3769444,42.5733694 L49.6948677,42.5733694 C50.1030026,42.5733694 50.4335582,42.2473916 50.4335582,41.8438 L50.4335582,12.6942862 C50.4335582,12.2929121 50.1030026,11.9669343 49.6948677,11.9669343 L16.2559127,11.9669343 C15.8477778,11.9669343 15.5183466,11.6409565 15.5183466,11.2384736 L15.5183466,5.04378617 C15.5183466,4.64130334 15.8477778,4.31532551 16.2559127,4.31532551 L58.192619,4.31532551 L58.192619,50.4966264 L16.8371958,67.7801038 C16.2165608,68.051752 15.5093519,67.6015921 15.5093519,66.9219173 L15.393545,50.9501125 C15.3912963,50.5487385 15.0596164,50.2238694 14.6526058,50.2238694 L14.6526058,50.2238694 Z M16.2559127,15.7921843 L45.8158995,15.7921843 C46.2229101,15.7921843 46.5534656,16.1181621 46.5534656,16.520645 L46.5534656,38.01855 C46.5534656,38.419924 46.2229101,38.7470106 45.8158995,38.7470106 L16.2559127,38.7470106 C15.8477778,38.7470106 15.5183466,38.419924 15.5183466,38.01855 L15.5183466,16.520645 C15.5183466,16.1181621 15.8477778,15.7921843 16.2559127,15.7921843 L16.2559127,15.7921843 Z M12.3769444,0.490075508 C11.9688095,0.490075508 11.638254,0.814944566 11.638254,1.21742739 L11.638254,11.643174 C11.638254,11.8216857 11.4920899,11.9669343 11.3020767,11.9669343 L0.738915344,11.9669343 C0.330780423,11.9669343 0.000224867726,12.2929121 0.000224867726,12.6942862 L0.000224867726,53.3217675 C0.000224867726,53.7242504 0.330780423,54.0502282 0.738915344,54.0502282 L11.638254,54.0502282 L11.638254,72.3870353 C11.638254,72.7462762 11.9047222,73.0478611 12.2633862,73.1132784 C13.0346825,73.2529832 13.8127249,73.1664993 14.5176852,72.8815459 L15.5183466,72.4812806 L22.3374603,69.7359708 L61.5712566,53.2652204 C61.874828,53.137712 62.0715873,52.8438885 62.0715873,52.5190194 L62.0715873,1.21742739 C62.0715873,0.814944566 61.7410317,0.490075508 61.3340212,0.490075508 L12.3769444,0.490075508 Z"/>
            </g>
        </g>
    </g>
</svg>
